<?xml version="1.0" encoding="UTF-8"?>
<svg id="_圖層_1" data-name="圖層_1" xmlns="http://www.w3.org/2000/svg" xmlns:xlink="http://www.w3.org/1999/xlink" version="1.1" viewBox="0 0 818 1147">
  <!-- Generator: Adobe Illustrator 29.2.1, SVG Export Plug-In . SVG Version: 2.1.0 Build 116)  -->
  <defs>
    <style>
      .st0 {
        font-size: 36.75px;
      }

      .st0, .st1 {
        font-family: NotoSansCJKtc-Regular-B5pc-H, 'Noto Sans CJK TC';
      }

      .st0, .st2 {
        fill: #fff;
      }

      .st3 {
        fill: #e6e6e6;
      }

      .st1 {
        font-size: 30.87px;
      }

      .st4 {
        fill: #ffc5dd;
      }

      .st5 {
        font-family: NotoSansCJKtc-Bold-B5pc-H, 'Noto Sans CJK TC';
        font-size: 61.14px;
        font-weight: 700;
      }

      .st6 {
        fill: #c2a3c2;
      }

      .st7 {
        fill: url(#_未命名漸層_8);
      }

      .st8 {
        fill: #136dbf;
      }

      .st9 {
        fill: #29abe2;
      }

      .st10 {
        fill: #e03b86;
      }

      .st11 {
        fill: #29b3bd;
      }

      .st12 {
        fill: #e6d385;
      }

      .st13 {
        fill: #e9fcff;
      }
    </style>
    <linearGradient id="_未命名漸層_8" data-name="未命名漸層 8" x1="411.56" y1="337.15" x2="433.58" y2="470.14" gradientUnits="userSpaceOnUse">
      <stop offset="0" stop-color="#ffc5dd" stop-opacity=".7"/>
      <stop offset="1" stop-color="#ff6ec1" stop-opacity="0"/>
    </linearGradient>
  </defs>
  <rect class="st13" width="818" height="1147"/>
  <g>
    <path class="st3" d="M794.98,312.12l6.67,1.67-.9,11.25,6.63,3.32,9.66,4.2,14.53,1.7h10.05s12.76,10.01,12.76,10.01l7.37,3.85,16.05-2.79,6.55-7.73,1.93-14.13,3.36-5.71,4.02-2.18-1.04-7.06-1.24-6.18-4.34-4.5-3.68-8.29.9-16.62-.46-10.77,4.82-10.07v-26.14l2.64-16.88,3.98-13.76,3.02-13.82,2.67-8.05,3.45-8.11,6.54-7.41,4.75-6.67,4.82-.53,15.74.88.62-16.69v-6.1l-4.8-7.41s3.49-2.18-2.62-2.18h-13.95l-3.92,11.34s-7.41,3.92-7.41.44v-13.95s3.49-5.67,3.49-7.41,2.62-6.54,2.62-6.54l5.23-3.49,7.41,3.92,13.08-.44,10.9-12.64,8.28-8.28,13.95-2.18,5.67-5.23,1.74-9.16v-15.26l13.95-1.31,4.36-6.54-2.62-7.41-5.23-4.8-10.46-1.31-10.03,1.74-10.9,7.41-17,7.41-13.08,7.41-10.03,6.1h-15.26l-8.28,4.8-12.21,6.98-6.98,3.05v16.57s-1.74,3.05-1.74,5.23-4.8,7.41-4.8,7.41l3.49,14.39,5.67,3.49-2.18,7.85,5.67,7.85,1.74,6.98-1.31,10.9-3.05,4.36,2.62,8.28,1.74,4.8-3.49,6.98-3.92,12.21-4.36,13.08-10.46,14.39-11.34,17.87-10.9,14.39-10.9,14.82-10.9,13.08-17.44,11.34-9.59,4.8-4.24,6.85,1.56,5.18,10.36,5.18Z"/>
    <path class="st3" d="M636.61,464.66l-1.96,17.22,7.05,5.98,6.07,10.93,12.41,2.14,2.56,2.99,12.79,1.32.84,1.26,12.28.76,14.7-11.29h9.07l2.54-.85,1.82-7.93-2.22-6.48,4.88-1.87,6.51-6.99,5.7,3.64h.97l8.73-2.27,3.03-7.45,8.82-1.89,6.43-5.73,4.48-1.49,1.95-3.57-.74-9.24-3.14-1.8v-6.99l18.6-1.09.5,4.05,7.51,2.19,5.82-9.24,4.19-16.25,13.4-2.49,18.04,4.4,17.47-.42,7.49-4.85,15.16.87,6.05-4.76h12.12l2.24-11.56-1.13-8.34-10.49-6.6h-6.62l-.48-20.01,3.99-3.1.64-8.28-15.6,2.7-8.89-4.68-11.96-9.36h-8.9l-15.63-1.91-10.03-4.36-9.16-4.58.84-10.55-3.99-1.05-12.11-6.05-1.32-4.4-6.59,4.8-12.21.44-1.74,9.16-5.23,8.28-1.31,8.28-7.85,7.85-4.36,3.92-3.05,12.64-7.41,6.1-3.05,3.92,3.49,15.69,1.74,5.67,14.82,14.39,3.49,7.85.87,22.23-3.05,3.05-4.8-1.74,1.74-10.9-4.8-4.8-10.03,1.74s-2.18,2.18-2.18,5.23v19.62l-7.41,3.05-10.9-.44-5.67-4.36-3.49,7.41-4.36,10.46-7.85.44-6.1-1.31,3.49,10.46-3.05,3.49-10.9-2.18-5.23-3.92-6.1,3.49-14.82-.87-6.54-8.28-4.78-2.61h0s1.88,1.03,1.88,1.03Z"/>
    <polygon class="st3" points="1041.28 502.84 1042.09 495.17 1044.54 473.97 1036.76 470.64 1030.79 467.65 1025.51 455.77 1025.1 441.13 1011.24 421.82 1001.85 414.88 994.72 413.54 988.87 407.69 994.14 397.76 1002.59 387.43 1015.63 387.43 1026.36 373.4 1034.72 363.71 1039.9 356.12 1039.9 352.04 1031.93 345.67 1027.72 341.47 1032.47 331.54 1036.48 326.33 1037.36 317.09 1045.7 307.87 1048.05 294.14 1039.79 284.69 1038.05 283.82 1032.48 283.27 1024.25 277.64 1012.87 277.1 1002.4 273.17 980.33 269.39 960.47 270.63 945.48 287.71 937.97 301.41 923.51 311.62 920.71 302.57 913.82 296.83 902.19 295.68 895.44 302.09 896.58 307.82 898.06 317.76 892.54 320.75 889.96 325.15 888.19 339.28 880.84 347.95 879.92 359.96 876.12 362.91 876.46 376.97 880.31 376.97 893.37 385.19 894.84 396.04 891.85 411.51 877.81 411.51 871.65 416.34 856.29 415.47 848.95 420.21 829.81 420.67 812.09 416.35 802.06 418.22 798.18 432.85 791.86 442.89 794.8 450.15 797.28 461.29 809.61 462.44 815.02 472.21 818.14 483.97 818.57 500.42 814.25 506.45 815.46 534.31 817.53 534.83 818.8 528.08 834.87 529.63 844.53 539.3 851.26 548.52 860.82 550.68 863.38 539.41 869.12 523.47 871.42 512.82 887.57 503.88 897.16 501.7 917.01 499.96 923.31 496.09 934.47 502.82 944.5 515.03 955.14 523.92 963.46 528.42 973.83 523.08 990.1 518.9 1001.15 528.19 1010.76 527.42 1025.38 518.56 1029.91 519.33 1034.28 511.08 1041.28 502.84"/>
    <path class="st9" d="M397.71,891.78l-11.77-1.04-1.09-11.22-.58-10.04-5.01-4.51-8.95-.31-4.61-4.23-4.48-12.49-2.47-6.03-7.46-3.99-4.8.48-4.11,4.43-12.01-.33-9.7-2.01,1.81-1.95c-.04-.44-.09-.99-.13-1.46l-2.38-1.39-10.92-.59h-10.69s-3.86-4.56-3.86-4.56l-5-3.89-16.84-1.03-8.06,4.45-4.39,5.68-23.93.23-4.31,4.08-19.52.31-13.59,6.65-5.29,8.02-10.9,19.32-7.74,4.01.33,15.71-5.84,9.64-10.57,6.31-6.33,2.8-18.01-.33-1.96,2.87-.89,4.95,3.46,2.33v3.68l1.42,2.83,5.73,4.14,2.41,8.83-8.77,6-8.38,2.79-2.63,6.38-1.59,12.7-10.06,6.29-9.1,3.9-8.79-3.6-.73.43,3.26,8.76.89,8.86,1.87,7.22.85,5.15,1.29,20.27.74,3.36,1.84.42-.62,4.93-1.23,4.01-8.94,4.62-2.77,4.01-3.08,6.47.62,8.02,5.55.31,4.62-7.09h5.24l4.93,4.01,5.86,5.55,6.78-1.23s6.47-1.54,7.71-2.47,4.01-4.01,5.24-4.62c1.23-.62,7.4-2.47,7.4-2.47l5.24,2.77,9.86,10.17,5.55,1.85,2.47-8.63-4.93-4.32-5.86-4.01.31-10.17,6.78-4.01.62-25.28,6.78-6.17,9.56-.62,1.23-5.86,11.1-16.34,5.55-6.78,5.86-.31,7.4-11.41,2.47-5.86-.92-15.41-1.85-4.01,3.08-5.55,9.86-3.7,9.56-3.39s12.64-.31,12.64-2.77,2.16-10.17,2.16-10.17l8.02-1.23,7.71-4.32,10.48-3.08,8.32-1.85,5.24-3.08,23.43-.92,4.62,4.32,15.11-.31,1.85,2.16,8.94,1.23,1.23,6.17,4.62,4.93,11.41,5.24,4.62,6.78,1.23,8.32,8.02,3.39,9.25,11.1,4.62.62,2.16-8.32,3.39-9.25.62-6.17,4.01-9.25,6.47-9.86,8.47-14.06-7.37-2.95-5.97-2.98Z"/>
    <rect class="st12" x="437.6" y="752.3" width="1.28" height="0" transform="translate(-353.3 1114.89) rotate(-84.39)"/>
    <path class="st9" d="M482.43,831s-1.23-2.47-1.85-4.32c-.62-1.85,1.85-4.01,1.85-4.01l2.77-4.93.62-3.7-2.16-5.86-5.24-6.17-5.24-3.7-6.78-3.39.31-20.04,3.7-6.47,4.01-6.78v-3.39l-4.62-.92-4.93-4.62s-4.32-3.08-6.78-5.24c-2.47-2.16-4.93-.62-4.93-.62l-4.01,4.62-8.77.25-1.51,10.94h-3.91l-11.97.31h-10.23l-18.39-1.16-2.25,3.38-6.88,1.72-1.57,9.11-15.47,1.98-11.97,8.51-9.26-1.64-6.47-4.01-4.1-1.77-8.59,1.66-7.54,4.4-8.02,1.17-6.3,6.55-7.19,4.58-5.58.51-1.07,10.27.34,15.62,5.01,3.95,2.79,3.3h8.93l12,.64,5.01,2.92.1,1.03c.07.77.13,1.39.17,1.92l4.4.93,9.83.24,3.91-4.21,7.53-.75,9.81,5.26,3.05,7.45,4.18,11.64,2.79,2.55,8.93.31,7.32,6.59.66,11.62.76,7.81,9.54.99,6.17,3.08,8.08,3.23-1.27,1.72,4.32-5.86,6.78-8.32,12.02-12.33,15.41-6.47,8.02-8.63,12.64-9.86,8.02-4.62,4.93-3.08,7.09-2.77-2.47-2.47-6.47-.62Z"/>
    <polygon class="st3" points="101.39 1030.11 101.4 1030.15 101.39 1030.1 101.39 1030.11"/>
    <path class="st9" d="M97.54,1007.47l-.79-4.78-1.89-7.34-.91-8.89-4.24-11.16,5.36-3.19,9.09,3.72,7.28-3.1,8.16-5.13,1.52-11.59,3.44-8.33,9.84-3.28,5.69-3.96-1.29-4.73-5.37-3.89-2.28-4.56v-2.49l-3.86-2.6,1.74-8.74,3.43-5.02,19.3.36,5.3-2.33,9.48-5.68,4.72-7.78-.36-17.04,8.9-4.61,10.38-18.4,5.96-9.05,15.83-7.54,18.41-.29,4.32-4.09,23.55-.23,4.07-5,9.45-5.22,16.63,1.02-.3-14.52,1.11-10.82-5.26-3.11-8.68-3.36-4,1.11-5.55,7.09-.62,5.24-19.73.31-4.62-4.01-23.74-.62-4.01,6.17-.92,3.7-16.34,1.23h-5.86l-.92,3.7-6.47-.92-4.01-3.7-.31-4.01-4.01-8.32-1.85-8.63-5.86-5.86-7.09-5.55-1.23-3.7h-9.25l-.92,12.33-6.47,1.54-10.17.62-4.32,4.62-7.09.92-4.01,3.08-1.23,6.17.92,13.26-3.39,2.47-4.01,3.08-4.32,1.23.62,34.22-8.94,5.55-12.33,7.71-8.63,5.24-5.24.31-7.09,4.93-6.17,5.24-1.23,5.86-6.78,4.62-6.17,4.62-5.86-.31-7.09,6.17-9.25,3.7-10.79,4.01-8.63,4.93-5.86,2.77-8.02,5.55-1.54,1.85,6.47,1.54H-.33l8.02-4.62,8.94-6.17,8.32-4.93,11.1-5.24,8.02,2.47,3.7,2.16-3.7,5.55v5.24l3.7,4.32-.92,11.1,1.85,2.47h14.18l3.7,1.85-4.01,7.09,3.7,3.7,3.08.31-.62,5.86-6.47,2.47-6.17,4.62-3.39.31,2.16,9.25-.31,1.85,3.7,2.16-1.23,4.32,4.01,1.54-.62,5.24-6.47,3.39-5.55,2.77-1.23,4.01,7.4-1.23,5.24,1.54,2.77,4.01,2.77,2.47-.31,6.17-5.24,4.62s-4.93-2.16-4.32,0c.62,2.16,6.78,8.02,6.78,8.02l4.62,1.23,4.93-1.23.62-5.24,7.71,1.23v3.08l7.4.92h10.17l1.69-.14-.54-2.47-1.31-20.38Z"/>
    <polygon class="st9" points="291.72 794.04 297.41 793.52 303.57 789.6 310.27 782.53 319.27 781.22 326.67 776.86 336.84 774.89 342.35 777.3 348.73 781.23 355.22 782.26 366.69 774.12 380.2 772.4 381.71 763.64 389.62 761.66 392.3 757.64 412.88 758.95 422.93 758.94 435.35 758.63 436.36 751.32 430.33 750.23 427.25 745.3 421.7 743.45 416.46 740.06 410.29 739.44 406.59 736.05 403.51 736.36 400.74 724.03 386.86 724.03 384.09 724.03 383.78 718.17 377.92 716.63 370.83 717.86 368.06 721.56 347.4 720.02 347.4 718.17 333.84 717.25 332.3 722.18 325.82 724.95 318.73 728.65 313.8 731.12 311.03 735.74 304.86 740.06 300.24 743.76 297.15 743.76 294.69 746.53 293.15 747.77 284.21 748.08 279.89 747.77 281.12 753.01 284.52 760.72 284.52 765.96 283.28 769.04 282.67 778.6 282.05 782.91 278.66 784.45 278.48 787.69 285.69 790.49 291.72 794.04"/>
    <path class="st9" d="M540.11,673.76l-8.72,4.36-13.52,14.39-9.16,8.28s-5.67,8.28-7.41,10.03c-1.74,1.74-5.67,13.95-5.67,13.95l-10.46,4.8-3.05,5.23,3.49,6.54,3.49,3.49v4.36l6.1,4.8h7.85l5.23-2.62,5.23-6.1,6.1-3.49h6.54l6.54-2.62-.44-7.41-4.36-1.74-1.31-6.54-.87-12.21,3.05-8.28,5.23-7.41,5.67-6.98,3.05-6.1,3.05-8.72-3.05-5.23-2.62,5.23Z"/>
    <path class="st3" d="M730.9,859.15c-2.09,0-6.34-2.9-9.54-5.34l-6.95-6.62-7.38-8.7-.63-15.41-.2-.03-10.38.03-5.17,1.94-9.22-2.23-6.07.53-5.56,5.22-8.95-5.7-1.14-15.58,3.44-.38,1.62-4.65-3.04-2.81-2.97-3.59-4.16-6.69-4.02-4.92-.31-8.01,3.34-6.34,5.65-8.5,3.94-4,2.52-6.83,8.25.36,5.07-1.14,1.09-3.97-.98-4.18-5.25-5.43-2.95-6.49-3.98-4.31-.26-5.24-5.06-.62-4.97,2.79-5.92,4.29-9.6-.36-4.8-3.3-1.79.18-10.89,8.41-15.11-.32-5.84,2.49-7.15-.3-3.18,3.93-9.06.93-4.14,3.22-11.91-1.1-5.68-5.26-1.07-1.05.53,8.75,5.55,4.62h4.62v6.47l10.17,6.78.31,3.7-1.23,4.62-6.47,1.54-5.55,6.17-.62,4.62,4.62,3.39,4.93,4.32-.62,6.17-3.39,3.39h-8.32l-3.7,2.77.31,8.32-4.01,2.16v6.78l11.1.31,5.24,6.78,5.24,9.25,8.19,7.24,14.32,6.01,11.1,5.55,5.55,2.47,1.54,4.32-4.01,4.32v7.4l4.62,3.08-.92,10.48,10.79,8.63,12.33,3.39,13.87,5.24,13.26.92,7.4,3.7,7.4,4.32,4.32,1.23,12.64-1.85,2.77-7.71,12.02-7.71,9.56-4.32,4.62-5.55-2.16-8.94,1.54-8.63,4.62-4.01,1.85-5.86-.18.56c-2.68-.09-4.81-.16-5.38-.16Z"/>
    <polygon class="st4" points="562.96 733.64 562.89 733.58 562.96 733.64 562.96 733.64"/>
    <polygon class="st4" points="623.93 647.58 623.93 647.58 623.96 647.55 623.93 647.58"/>
    <rect class="st6" x="634.72" y="463.62" width=".03" transform="translate(101.07 1040.7) rotate(-83.38)"/>
    <path class="st4" d="M577.96,737.34l3.8-2.95,8.55-.88,3.41-4.2,8.26.36,5.8-2.47,14.56.3,10.68-8.25,4.4-.44,5.05,3.48,7.05.26,4.99-3.6,6.32-3.56,6.75.83,3.66-6.35-.31-33.93,3.88-3.66-5.19-7.93,1.27-8.29-.26-9.29,4.09-1.62.57-6.54,5.72-3.57c.55-.12,1-.22,1.41-.3l.45-9.24-2.53-4.81-7.14-4.11-2.3-5.99-7.94-9.96-5.25-3.76-4.55.3-3.21,3.68-6.71-.66-3.7-4.67-7.2-5.03-5.82-6.67-10.3-5.02-1.44,3.01-.52,5.67,3,4.14,7.44.3,3.53,3.09.74,4.08.03,11.52-2.61,6.97,4.46,10.42.99,16.55-8.14,5.57.05-.59-.46,5.48-.31,15.41-4.01,4.32,1.23,5.55,3.08,2.77-4.01,5.24-2.16,6.17-4.01,6.17-4.32,4.62-3.08,4.93-8.32,6.17-7.71,6.47-8.02,2.77-7.09,1.23-2.16,2.47-8.94-.92-.28,2.65,5.76,5.51,8.97.83Z"/>
    <path class="st3" d="M865.51,560.29l-4.3-5.4-12.31-2.78-7.42-10.2-8.44-8.41-10.97-1.06-.97,5.17h-.04s-1.91,11.01-1.91,11.01c.29.33.64.73.95,1.08l.96-.27,2.26,13.39-2.91,13.75-.3,9.19-7.73,14.28-14.39,11.82-14.77,3.78-18.82-.6-5.36-4.45-4.33-.53.74,8.24-4.08,11.27-7.43,1.06-.05,4.71,4.93,3.43-.16,6.82,2.31,6.84,2.93.92,1.63,8.81-6.3,5.29v4.28s1.46,4.46,1.46,4.46l4.41,2.8,5.31,1.76,9.21,5.42,6.32-.34,2.99,3.98-1.54,11.51-3.67.67-1.17,3.48-13.32,2.2-4.2,3.36-.22,7.72,4.38,3.16,1.48,6.54-2.05,7.08,3.13,3.86,1.94,10.04-2.55,8.14-2.04,9.16,1.35,21.99-5.99,1.36-1.37,5.76-8.82.12-9.88,9.42-12.26,10.92-9.49,7.89-2.2-.4.54,13.14,6.34,7.49,6.63,6.32c2.8,2.11,6.16,4.23,7.03,4.38h.03c.97,0,5.5.15,9.8.31l-3.45,2.39h0l4.01-2.77,3.7-9.86,5.24-12.64,7.4-9.56,7.09-4.93,6.17-.31s3.39,1.23,4.01-.31c.62-1.54,1.54-3.7,1.54-5.86s-1.54-4.32-1.54-4.32l.62-3.39,11.41-.62,2.16-11.71-1.54-5.86,5.55-3.7,1.85-4.62-.31-2.77-4.32-6.17,6.17-6.78,16.34-8.63s6.47,0,8.32-.31c1.85-.31,10.17-.92,10.17-.92l2.47-3.08s2.47-4.32,4.62-4.32,5.24-2.77,5.24-2.77c0,0,8.94.62,10.48.31,1.54-.31,4.62-3.39,4.62-3.39,0,0,3.08-2.47,3.7-3.7.62-1.23,4.32-5.55,4.32-5.55l6.17.92,1.54,3.7,8.63,1.54,3.39,5.55s7.71,5.55,9.56,4.32c1.85-1.23,4.93-2.47,4.93-2.47,0,0,3.08-6.47,3.08-7.71s-.62-12.95-.62-12.95l2.77-6.17,4.93-2.77-.62-7.4-9.56-10.48-6.78-4.01-9.56.31-3.08-2.47h-9.86l-6.78-6.17-6.17-6.17-3.08-3.08-6.47-2.16-1.85-2.77h-4.32l-4.01-3.08,1.23-10.79v-8.63l-2.16-10.17,3.7-6.17,8.02-8.32,6.78-9.56-.31-20.04,4.62-6.17,6.47-4.62,5.24-2.16,1.53-.77v-10.96l-8.72-7.12Z"/>
    <path class="st4" d="M730.77,857.22s.05-.02.13-.02c1.33,0,4.08.32,5.52.5-1.45-.18-4.19-.5-5.52-.5-.07,0-.11,0-.13.02Z"/>
    <path class="st3" d="M815.5,550.56l-.64-.72,1.92-11.05-5.2-1.3-1.4-32.25,4.34-6.07-.38-14.86-2.93-10.81-4.07-7.25-13.14-1.23-3.02-13.69-2.93-7.15-10.42-3.05-.37-2.93-11.05.65v.86l2.96,1.69,1.01,12.55-3.28,6.02-5.57,1.86-6.19,5.75-7.83,1.68-2.99,7.35-11.44,2.91h-2.4l-3.86-2.47-4.86,5.22-2.13.82,1.33,3.9-2.57,11.25-5.63,1.77h-8.04l-12.35,9.5,17.71,16.42-4.87,8.75,2.6,23.84-3.47,8.63,1.6,19.08,6.56,8.68.03,6.14,1.42,4.92,9.91.34,4.5,6.5,14.29,13.92,5.76-.82,2.96-8.16-1.11-12.31,10.44,1.27,5.21,4.33,16.87.54,13.77-3.52,12.94-10.87,6.63-12.52.31-8.61,2.8-13.35-1.67-9.87c-.5-.53-1.16-1.27-2.07-2.3Z"/>
    <path class="st3" d="M737.87,648.76l-13.1-5-3.36-.97-5.95,4.14-18.51-.03-4.05-5.28-7.79-.85-1.62-2.18c-.46.1-.95.2-1.27.27l-3.09,2.02-.61,7.06-3.8,1.5.17,6.85-1.06,7.11,6.19,9.46-5.05,4.77.31,33.27-4.6,7.98.24,4.84,3.56,4,2.93,6.45,5.39,5.39,1.48,6.3-1.99,7.29-7.95,1.77-5.85-.25-2.12,5.21-4.01,4.01-5.3,8.01-2.73,5.2.22,5.6,3.32,4.08,4.16,6.68,2.62,3.18,4.78,4.39-3.32,9.53-2.11.24.71,9.7,4.61,2.94,4.3-4.04,8.11-.7,8.66,2.09,5.06-1.76h10.78v-.11s5.16.94,5.16.94l.14.02,8-6.65,12.15-10.83,10.97-10.46,7.26-.1,1.22-5.15,5.1-1.15-1.17-19.15,2.2-9.88,2.29-7.33-1.56-8.05-3.82-4.71,2.35-8.11-.92-4.04-4.88-3.52.34-11.71,6.48-5.18,11.97-1.98,1.17-3.45,3.12-.57.93-6.98-.71-.95-5.39.28-10.06-5.92-5.4-1.81-5.85-3.71-2.13-6.77.02-6.48,5.94-4.98-.76-4.13-2.58-.81-2.34-6.95-2.01,1.06-5.59-.99Z"/>
    <path class="st9" d="M243.68,680.54l-10.01-8.17,2.19-18.79-5.16-2.18,2.17-23.91-5.76-4.65-6.36-10.44-.89-19.31,3.5-7.51-4.75-4.73-.65-8.21c-.99.09-4.29.39-6.28.57l-.11.82-6-2-2.59-1.14-17.97-.3h-19.19l-8.92-1.25-17.24-1.18-3.92,1.72-5.22,8.12-11.29,12.87-9.95,7.11-5.13,1.28-.45,1.23,7.05,7.64.8,11.93-9.37.78-13.52,2.11-7.21,2.7-8.89,4.45-13.11-.42-7.25-2.42-4.09,3.48-28.93-.04-7.12,9.78-8.66,4.31-2.63,23.5-7.04,11.8-9.83,5.97-1.04,5.16,2.47,5.49-.31,18.74.74,3.97,8.87,6.95,5.81,10.66-.29,8.3,9.77,5.86,5.99,4.17-.24-9.46s9.56-2.16,10.79-3.08c1.23-.92,4.62.31,5.55-5.24.92-5.55,1.54-7.4,1.54-7.4l4.01-5.86,4.62-1.85,20.35-.31.31,7.09,6.47,11.1s7.09,9.25,8.94,10.17c1.85.92,5.86,4.62,11.71,4.62h13.56l14.18-8.02,4.32-7.09,3.39-4.93,14.18-.62,12.95-3.08,8.02-.92,1.23,5.86,6.78-7.4,4.62-4.62,5.55-7.4,8.32-2.77,6.78,2.16s4.01,3.7,5.24,2.16c1.23-1.54,5.55-6.17,5.55-6.17,0,0-.62-4.01,2.77-4.01s5.86,1.23,5.86,1.23l5.55,4.62,6.47,4.32,7.09-1.85s4.01-2.77,4.93-4.01c.61-.81,4.82-4.98,7.62-7.72l.64-17.84-1.93-6.53Z"/>
    <polygon class="st9" points="403.49 620.92 402.07 611.89 403.87 581.26 407.75 577.38 413.96 567.85 415.52 560.93 422 551.67 426.65 550.12 428.37 534.94 418.13 536.89 409.5 542.32 403.21 541.42 394.08 549.33 387.91 549.33 376.66 531.65 365.97 521.54 354.12 520.84 355.05 511.85 346.7 511.16 331.02 521.61 325.43 531.14 321.34 531.14 306.42 523.83 297.73 517.87 285.2 516.37 285.21 514.5 279.84 514.78 271.73 531.83 264.22 535.12 263.61 542.37 254.18 547.81 241.19 547.24 239.16 559.21 232.31 562.84 225.97 562.8 221.71 568.96 222.51 579.05 228.2 584.73 223.92 593.9 224.72 611.2 230.35 620.44 237.07 625.67 234.97 648.84 240.21 651.05 237.93 670.65 247.19 678.21 249.65 686.55 249.08 702.51 249.48 702.54 249.48 702.58 248.15 702.55 266.76 702.97 272.43 700.79 276.35 698.18 287.69 693.82 294.23 693.82 297.28 696.43 306.44 697.74 331.29 698.61 331.72 702.1 342.62 701.67 345.24 692.07 346.98 689.02 352.65 681.61 361.37 678.12 364.42 673.76 366.6 672.02 378.81 671.58 384.04 668.53 387.96 662.86 389.27 655.45 396.68 652.4 401.91 650.22 405.4 648.48 405.84 642.81 411.94 641.5 414.24 641.24 415.06 634.65 403.49 620.92"/>
    <path class="st3" d="M-80.26,668.87l-.8,7.23-1.96,1.3-1.82,8.17-.49.43c-.64.57-1.16,1.03-1.58,1.39l1.09,5.03,3.08,1.71-.58,10.66,9.5.54,4.58,4.16v7.16l-4.03,2.88c.46,1.71,1.26,4.66,1.62,5.98l7.6,5.7,11.87.53,1.25-2.82,9.04.7,10.32-3.26,1.79-6.13.63-16.34,4.31-6.63,3.78-6.4,1.33-7.3,10.52-6.4,6.3-10.56,2.53-24.43,9.76-4.86,7.75-10.64,29.49.04,4.69-4,9.12,3.04,11.22.29,8.18-4.09,7.99-2.97,13.87-2.16,5.57-.47-.44-6.57-7.75-8.39,2.02-5.55,6.82-1.7,8.75-6.42,10.64-12.16,5.7-8.91,5.94-2.6,18.37,1.26,8.78,1.25,19.04-.02.29-8.59,2.88-1.23,2.83-3.46,4.73-1.58v-2.56l.68-14.39,7.07-2.54,5.39-1.65,4.54-1.68.51-6.43,1.6-6.21,1.6-8.36,3.23-4.11-.53-10.28-3.88-2.69-.96-5.29,5.42-4.92,1.11,1.71-2.81-4.32s-5.86,1.23-6.17-.31c-.31-1.54-.92-6.17-.92-6.17l4.62-4.32.31-2.77-1.54-.62-2.77.62-4.93,1.85-9.56-.92-7.4-5.24-8.63-4.93s-8.94,4.01-10.17,4.93c-1.23.92-5.86,5.24-8.32,6.47-2.47,1.23-14.49,6.47-16.34,6.78-1.85.31-13.26,2.47-15.41,2.47s-8.32.92-9.56,1.54c-1.23.62-13.87,8.02-13.87,8.02l-12.02,3.39-4.01,4.62,1.23,6.47,7.09,6.47-.31,6.47s-3.7,5.24-5.86,6.78c-2.16,1.54-12.33,5.24-12.33,5.24l-14.49,7.71-14.8,10.79-8.02,9.56-12.33,15.11-10.48,3.08-14.49,8.94-9.86,10.17-10.17,4.62-4.62,11.1-13.26,8.32-4.62,6.47s-4.32,8.94-5.55,9.25c-1.23.31-7.09,2.47-7.09,2.47l-9.25,12.64-6.17,4.01-8.63,2.47h-3.08c.09,0-6.47,3.7-6.47,3.7h-2l.29,9.44,2.87,4.14Z"/>
    <polygon class="st3" points="221.66 482.34 221.66 482.34 221.66 482.34 221.66 482.34"/>
    <path class="st3" d="M7.76,754.59l-11.69-7.01.33-9.58-5.08-9.31-9.22-6.99-1.11-5.9.3-18.25-.71-1.57-2.02,3.41-3.75,5.77-.67,15.96-2.46,8.43-13.11,4.14-6.99-.54-1.21,2.73-15.88-.71-9.67-7.25-.18-.68q-2.51-9.28-1.48-10.11l3.56-2.55v-3.32l-2.21-2-12.08-.69.66-12.15-2.47-1.37-2.51-11.56,2.33.86c.35-.31.75-.66,1.05-.93l1.89-8.48,1.74-1.16.43-3.87-2.69-3.88-.33-10.76-10.32-.3-7.4.31-.62,2.16-4.93,7.71-6.17,11.41-5.86,8.63-12.64,3.39-2.16,10.17-12.02,12.95s-7.09,3.08-11.1,3.7c-4.01.62-.92,3.08-.92,3.08h-6.78s-21.89-.92-23.43-.92-7.4-5.55-7.4-5.55l-.31-2.77s-12.02.92-12.95,2.47c-.92,1.54-6.78,2.47-6.78,2.47l-5.55-.92,4.32,4.01-3.39,4.62-7.4,1.85s-6.17,0-8.32.31c-2.16.31,0,7.09,0,7.09l-4.32,5.24,3.7,6.47,4.93,4.32-.62,16.96-7.4,6.17s-.62,5.55-.62,6.78.92,8.02.92,8.02l4.62,5.55,1.54,4.32-2.77,5.55-2.16,5.86,2.47,7.4,4.62-.31,2.77-6.17,4.62-4.62v-4.93l9.25-1.23,2.77-4.93h4.93l5.86,2.47,8.02,4.01,8.02,6.17,4.32,6.47,6.47,2.47,8.01,1.54,5.55-.92,10.48-5.24,3.08-5.24,3.08-7.09s4.32,4.62,5.55,5.86c1.23,1.23,8.02,1.23,8.02,1.23l5.86-7.09,6.47-.62,13.26-1.85,16.95-1.54,10.17-6.47s4.93,1.23,9.56,1.85c4.62.62,5.55,4.62,6.47,5.86.92,1.23,12.95,8.63,12.95,8.63,0,0,14.8,9.25,16.65,10.79,1.85,1.54,7.71,5.86,7.71,5.86h9.56c4.01,0,4.62,3.08,4.62,3.08,0,0,4.32,1.85,6.17,3.7,1.85,1.85,1.54,6.17,1.54,6.17l7.09-.31v-6.17l-3.08-4.01,1.23-12.33,2.16-2.16,5.55-1.85,3.39-12.64.92-13.87,1.23-10.48,5.24-5.86-1.85-4.01,1.62,3.51-9.86-6.86Z"/>
    <path class="st3" d="M219.48,487l.27,1.49,4.13,2.87.71,13.76-3.55,4.53-1.45,7.53-1.57,5.99-.66,8.64-7.07,2.6-5.4,1.65-4.45,1.6-.55,11.6v5.36s-6.37,2.13-6.37,2.13l-2.72,3.32-1.44.62-.2,5.89h3.47l11.61.48,2.78,1.23,3.31,1.1c1.31-.2,3.36-.4,6.62-.7l.29-.43,3.93-6.2.04.52,2.69-3.81,7.42.04,4.21-2.23,2.29-13.51,15.37.67,6.6-3.81.63-7.54,8.33-3.65,8.5-17.87,12.04-.61-.02,2.53,9.94,1.19,9.25,6.37,13.83,6.76h.85l4.89-8.35,17.62-11.74,13.84,1.15-.92,8.89,9.11.54,12.25,11.67,10.2,16.02h2.46l9.38-8.13,6.65.95,8.39-5.12,11.85-2.26.03-.24,9.65-.48,2.8-2.53,3.79-1.38,2.74-10.19,2.45-3.06-4.44-5.29-3.49-7.41-2.56-4.69-4.57-7.76-.87-12.67-1.96-3.54-4.61-9.56-.65-9.59-3.3.38-12.02,5.24-12.33,7.09-9.86,4.93-14.8.31-22.2,1.54-7.09.62-5.24,3.08-36.07-.92-20.65-.62-6.78-2.16-12.95-.62-6.17,1.54-8.63,2.77-6.47,6.78-2.47,4.01-11.41-.92-2.73-3.03-3.22,1.56-3.29,3.05Z"/>
    <polygon class="st3" points="16.01 757.94 15.95 755.67 16.01 757.94 16.01 757.94"/>
    <g>
      <polygon class="st9" points="619.34 574.61 620.63 573.2 619.32 574.6 619.34 574.61"/>
      <path class="st9" d="M617.44,570.72l1.52-1.67-2.04-7.08-5.65-4.1-7.77-2-9.05-6.14-13.03-.04-3.04-9.01-6.24-9.75-12.82.03-3.52-.09-8.51-1.89-7.89-9.21-7.16-2.48-3.42-23.01,5.65-2.89,5.47,2.97,4.67.74,3.41-1.38,4.8-6.29-2-11.98-3.43-8.02-4-1-2.15.05-.82-.03-5.31,4.46-7.98-1.15-4.63-7.42-6.03-4.17-1.53-9.16,1.78-5.6-8.43-.72-1.74-4.8-10.9,3.49h-10.03l-4.8-2.62-7.41,3.05-10.03.87-6.54-3.05-7.85.44s-3.49,3.05-5.23,4.8-9.16,4.8-9.16,4.8l-3.48,1.93.65,9.67,6.57,13.05.84,12.17,6.77,11.86,3.43,7.27,6.14,7.17-4.25,5.32-2.77,11.07-5.38,1.96-2.85,2.85-7.79.39-2.13,18.76-5.82,1.94-5.48,7.83-1.51,6.83-6.8,10.35-2.95,2.95-1.69,28.67,1.19,7.53,3.58,4.38,8.39,9.8-1,8.02,8.06,1.4,3.92-3.49,6.54-6.1,9.59-1.74,26.16,1.31,15.7.44,10.03,3.05,12.64,5.67,10.03,5.67,10.03,5.67,10.03,5.67,8.28,3.05h22.23l7.41-5.67,18.31-7.41,9.59-2.18,11.77.87,5.34-.03-3.7.02,7.47-5.11-.83-13.91-4.81-10.9,2.93-7.83v-10.43l-.45-2.33-1.41-1.24-7.97-.31-5.02-6.96.87-8.21,3.34-6.99,2.01-1.47,1.08-1.18Z"/>
      <polygon class="st3" points="739.84 637.42 739.93 629.73 725.3 615.41 721.71 610.27 710.9 609.9 708.51 601.36 708.48 596.28 702.02 587.74 700.24 566.54 703.69 557.96 701.07 533.85 705.02 526.73 688.36 511.29 674.14 510.41 673.24 509.05 660.74 507.76 658.07 504.65 645.2 502.43 638.37 490.15 630.41 483.59 632.83 462.3 627.75 458.83 616.41 457.96 607.26 463.19 612.92 473.22 615.1 476.27 608.13 481.5 602.02 473.22 590.25 464.5 584.59 461.88 580.66 461.88 581.1 457.52 589.38 450.55 592 440.52 597.67 438.78 601.59 438.78 601.59 433.11 593.74 424.39 588.07 419.59 581.1 418.29 570.64 420.46 566.28 423.95 557.99 423.95 551.02 432.24 533.58 438.34 534.01 444.44 527.04 446.62 520.67 444.28 519.07 449.32 520.16 455.84 525.68 459.88 529.55 466.06 533.9 466.69 539.02 462.39 541.26 462.48 543.82 462.41 550.29 464.03 554.74 474.56 557.06 488.5 550.53 497.04 545.07 499.25 538.3 498.07 534.4 495.94 533.21 496.55 535.85 514.29 541.73 516.34 549.46 525.35 556.45 526.91 559.32 526.94 574.31 526.9 582.09 539.16 584.29 545.68 595.68 545.7 605.44 552.34 613.3 554.38 620.4 559.53 623.44 570.1 620.63 573.19 620.63 573.19 620.63 573.2 619.34 574.61 619.32 574.6 618.51 575.45 629.29 580.84 635.21 587.62 642.58 592.82 645.34 596.32 648.28 596.61 651.23 593.23 658.88 592.73 665.93 597.87 674.54 608.83 676.44 613.78 683.35 617.76 686.93 624.57 686.39 635.79 687.28 636.97 695.04 637.82 698.93 642.88 714.19 642.91 720.68 638.39 726.02 639.95 739.15 644.94 742.79 645.55 744.66 644.56 744.75 640.82 739.84 637.42"/>
      <polygon class="st9" points="620.63 573.19 620.63 573.19 620.63 573.2 620.63 573.19"/>
    </g>
  </g>
  <text class="st5" transform="translate(80 133.36)"><tspan x="0" y="0">西日本地區地圖</tspan></text>
  <g>
    <g>
      <g>
        <polygon class="st11" points="110.21 212.18 102.29 197.88 107.31 192.85 112.49 209.9 110.21 212.18"/>
        <path class="st11" d="M110.07,213.14l-8.5-15.36,6.02-6.02,5.56,18.31-3.08,3.07ZM103.01,197.98l7.33,13.25,1.49-1.49-4.79-15.78-4.03,4.03Z"/>
      </g>
      <g>
        <polygon class="st11" points="87.57 189.54 101.87 197.46 106.9 192.43 89.85 187.26 87.57 189.54"/>
        <path class="st11" d="M101.98,198.18l-15.36-8.5,3.07-3.08,18.31,5.56-6.02,6.02ZM88.52,189.41l13.25,7.33,4.03-4.03-15.79-4.79-1.49,1.49Z"/>
      </g>
    </g>
    <g>
      <path class="st11" d="M96.74,205.9l16.3-16.3c.8-.8,1.48-2.78.69-3.58-.8-.8-2.78-.11-3.58.68l-16.3,16.3-5.08-1.54-1.97,1.97,5.88,3.25.38.38,3.25,5.88,1.97-1.97-1.54-5.08Z"/>
      <path class="st11" d="M96.17,213.91l-3.59-6.48-.26-.26-6.48-3.59,2.76-2.76,5.08,1.54,16.06-16.06c.69-.69,1.96-1.21,2.95-1.21.6,0,1.1.18,1.44.53,1.15,1.15.21,3.5-.68,4.4l-16.06,16.06,1.54,5.08-2.76,2.76ZM87.75,203.3l5.28,2.92.5.5,2.92,5.28,1.18-1.18-1.54-5.08,16.55-16.55c.66-.66,1.15-2.28.69-2.75-.15-.15-.42-.19-.62-.19-.76,0-1.71.45-2.13.87l-16.55,16.55-5.08-1.54-1.18,1.18Z"/>
    </g>
  </g>
  <text class="st1" transform="translate(128.41 211.1)"><tspan x="0" y="0">台灣直飛航點城市名稱</tspan></text>
  <text class="st1" transform="translate(128.41 315.1)"><tspan x="0" y="0">瀨戶內國際藝術祭區域</tspan></text>
  <g>
    <polygon class="st3" points="662.68 247.49 662.68 247.48 662.68 247.48 662.68 247.49"/>
    <polygon class="st3" points="661.28 248.94 661.49 248.64 661.49 248.63 661.33 248.87 661.28 248.94"/>
    <polygon class="st3" points="663.11 247.13 662.7 247.47 662.76 247.41 663.12 247.13 663.11 247.13"/>
    <polygon class="st3" points="666.31 245.94 666.37 245.95 666.37 245.95 666.31 245.94"/>
    <polygon class="st3" points="668.18 244.7 668.18 244.7 668.18 244.7 668.18 244.7"/>
    <polygon class="st3" points="664.62 246.85 663.79 247.13 663.79 247.13 664.66 246.84 664.62 246.85"/>
    <polygon class="st3" points="670.09 243.42 669.21 244.53 669.21 244.53 670.09 243.42 670.34 243.35 670.09 243.42"/>
    <polygon class="st3" points="660.84 250.26 660.78 250.61 660.8 250.48 660.89 249.9 660.84 250.26"/>
    <polygon class="st3" points="694.32 243.11 694.32 243.11 694.12 243.04 694.32 243.11"/>
    <polygon class="st3" points="673.25 267.74 673.36 267.85 673.31 269.23 673.36 267.85 673.25 267.74"/>
    <polygon class="st3" points="684.66 213.58 684.64 213.56 684.6 213.53 684.66 213.58 684.66 213.58"/>
    <polygon class="st3" points="666.22 262.78 666.22 262.78 666.23 262.69 666.24 262.5 666.22 262.78"/>
    <polygon class="st3" points="670.24 264.22 670.24 264.21 670.23 264.23 670.15 264.25 670.24 264.22"/>
    <polygon class="st3" points="666.28 261.79 666.28 261.79 666.25 261.78 666.26 261.78 666.28 261.79"/>
    <polygon class="st3" points="663.98 257.72 663.98 257.73 663.98 257.72 663.98 257.72"/>
    <polygon class="st3" points="674.82 237.24 675.25 237.96 675.23 238.2 675.26 237.96 674.82 237.24 674.81 237.24 674.82 237.24"/>
    <polygon class="st3" points="670.74 243.25 670.75 243.24 670.74 243.25 670.74 243.25"/>
    <polygon class="st3" points="674.54 232.58 674.54 232.58 674.54 232.58 674.54 232.58"/>
    <polygon class="st3" points="674.89 234.71 674.93 234.6 674.89 234.72 674.89 234.71"/>
    <polygon class="st3" points="669.82 272.4 669.83 272.38 669.83 272.36 669.82 272.39 669.82 272.4"/>
    <polygon class="st3" points="682.26 221.58 682.38 221.33 682.39 221.3 682.26 221.57 682.26 221.58"/>
    <polygon class="st3" points="686.84 215.32 686.84 215.32 686.82 215.27 686.84 215.32"/>
    <polygon class="st3" points="685.09 216.99 684.97 217.01 685.11 216.99 685.64 216.64 685.09 216.99"/>
    <polygon class="st3" points="675.11 232.08 674.78 232.58 674.78 232.58 674.54 232.58 674.78 232.58 675.12 232.08 675.11 232.08"/>
    <polygon class="st3" points="670.39 241.35 670.39 241.37 670.39 241.35 670.39 241.35 670.39 241.35"/>
    <polygon class="st3" points="675.13 239.18 675.13 239.18 675.13 239.17 675.13 239.16 675.13 239.18"/>
    <rect class="st3" x="671.92" y="240.74" width=".82" height="0" transform="translate(298.58 849.25) rotate(-78.14)"/>
    <polygon class="st3" points="670.48 242.42 670.4 242.35 670.4 242.35 670.48 242.42"/>
    <polygon class="st3" points="675.09 240.29 675.11 240.42 675.11 240.38 675.1 240.29 675.09 240.29"/>
    <polygon class="st3" points="672.53 240.36 673 240.47 673 240.47 672.53 240.36"/>
    <polygon class="st3" points="675.41 241.63 675.3 241.83 675.42 241.64 675.41 241.12 675.4 241.11 675.41 241.12 675.41 241.63"/>
    <polygon class="st3" points="672.72 270.33 672.72 270.33 672.97 269.89 672.72 270.33"/>
    <polygon class="st3" points="674.7 242.25 675.05 242.26 675.05 242.26 675.05 242.26 674.7 242.25"/>
    <polygon class="st3" points="693.16 242.71 693.16 242.71 693.16 242.71 692.95 242.48 692.8 242.33 693.16 242.71"/>
    <polygon class="st3" points="698.42 243.77 698.41 243.59 698.42 243.72 698.42 243.77 698.42 243.77"/>
    <rect class="st3" x="685.14" y="238.7" width="0" height="0" transform="translate(-17.34 420.14) rotate(-33.69)"/>
    <polygon class="st3" points="687.24 238.38 687.17 238.19 687.23 238.38 687.24 238.38"/>
    <polygon class="st3" points="698.81 242.94 698.81 242.94 698.82 242.94 698.69 242.75 698.64 242.68 698.81 242.94"/>
    <polygon class="st3" points="671.13 275.17 670.82 275.74 670.82 275.75 670.82 275.75 671.13 275.17"/>
    <polygon class="st3" points="787.05 103.22 783.57 105.6 780.88 106.7 780.09 105.12 777.4 98.48 775.35 94.84 775.82 92.79 778.51 88.99 778.2 87.57 781.36 84.09 780.25 82.19 777.41 85.83 773.14 88.99 770.61 91.36 765.07 92 762.38 90.1 761.28 87.89 760.96 89.31 759.54 89.78 760.01 87.57 756.69 86.62 756.53 87.73 752.74 87.41 752.26 85.83 747.68 82.98 739.93 77.45 734.08 70.33 730.91 65.75 725.7 58.31 724.27 58.16 723.17 56.26 721.43 54.68 721.27 56.58 719.05 57.21 717.31 57.05 716.84 58.95 715.42 61.48 716.37 64.32 719.37 71.12 719.21 76.97 718.74 78.08 717.31 82.19 716.68 83.46 717 88.2 715.89 92.47 712.57 93.89 712.25 95.16 711.15 95.95 712.25 98.96 711.62 100.38 712.41 102.12 712.73 104.96 711.62 106.86 711.62 107.81 708.62 109.39 707.19 108.76 705.77 107.34 702.92 108.92 702.13 107.81 700.55 106.86 697.39 104.33 696.28 105.44 694.7 105.28 694.07 107.34 698.34 112.4 696.12 114.45 694.23 116.51 694.23 117.61 693.28 116.98 691.85 116.82 690.91 118.72 689.64 119.83 687.11 120.15 686 121.73 686.48 125.68 684.9 127.58 684.74 130.11 686 130.27 686.64 131.69 688.85 132.48 691.38 136.12 690.11 139.6 688.06 142.28 688.38 145.45 689.64 147.82 691.85 148.61 693.28 146.71 695.97 145.6 696.12 142.28 697.86 141.65 699.29 139.44 700.87 139.28 701.03 140.23 703.87 140.86 706.09 141.49 707.35 140.54 708.77 139.6 707.98 138.01 705.61 137.07 704.51 135.96 701.18 132.48 699.29 132.48 694.7 130.27 693.28 127.89 694.86 124.57 697.23 122.2 698.65 122.52 699.6 121.88 701.34 122.52 703.56 125.36 704.51 127.42 705.61 128.68 706.09 127.89 708.93 124.89 712.1 122.83 716.52 121.25 720.63 122.52 722.85 124.1 724.43 125.05 726.8 126.63 731.7 129.32 736.92 131.85 741.51 134.06 744.36 136.59 744.36 135.17 745.78 131.37 745.62 128.68 747.36 124.26 751.63 118.72 756.53 114.45 763.65 112.55 765.07 114.14 767.44 113.98 770.61 114.61 770.13 112.71 771.55 111.29 773.14 111.76 772.19 112.71 773.93 113.66 776.3 111.76 777.09 110.02 778.2 110.34 782.31 108.92 783.57 108.76 786.42 105.75 788 104.17 787.05 103.22"/>
    <polygon class="st3" points="675.13 239.18 675.13 239.17 675.13 239.18 675.13 239.18"/>
    <polygon class="st3" points="675.11 240.38 675.1 240.29 675.1 240.29 675.11 240.38"/>
    <polygon class="st3" points="693.11 169.29 694.68 168.7 696.01 168.21 697.94 169.49 699.16 169.9 701.28 169.47 702.91 168.14 704.65 169.35 705.32 170.71 705.01 173.45 706.2 174.24 708.19 172.38 711.05 171.19 712.29 171.24 714.27 170.38 715.11 170.94 716.34 169.89 717.79 169.49 715.42 167.11 713.68 165.21 712.57 161.26 712.41 156.52 712.89 152.25 713.99 148.13 710.99 149.08 708.93 147.98 706.4 146.08 704.66 145.29 702.77 148.45 702.13 152.09 701.82 154.3 705.45 153.04 707.83 152.4 709.57 151.3 710.51 153.51 709.72 155.88 708.3 159.2 706.88 160.15 704.66 157.46 702.61 157.78 701.66 160.31 699.92 160.63 699.92 156.99 699.6 153.99 698.81 152.25 696.76 153.19 695.65 152.09 694.7 151.77 694.07 153.83 693.59 154.62 694.54 156.52 694.7 157.78 692.65 161.42 690.91 162.84 689.8 162.37 688.06 163.79 686.16 166 687.58 167.11 687.58 169.56 689.63 169.14 693.11 169.29"/>
    <polygon class="st3" points="688.7 197.37 689.74 197.4 691.3 198.93 692.1 198.47 692.65 199.31 694.04 199.3 696.43 200.7 696.85 201.57 698.12 202.26 699.93 202.12 701.36 200.77 701.99 200.78 701.46 200.36 701.85 199.56 702.2 199.04 702.18 198.48 701.88 198.36 701.24 196.91 701.62 195.71 701.75 195.21 700.76 194.36 700.33 193.52 700.14 192.5 699.57 191.37 700.13 190.51 700.65 190 700.92 188.84 701.39 187.77 702.24 186.76 702.55 185.24 701.97 184.2 702.6 183.47 702.2 182.69 702 181.28 703.25 181.48 703.56 181.07 703.06 179.85 702.98 176.88 703.62 176.23 703.01 174.9 704.64 173.48 704.95 170.77 704.36 169.6 702.93 168.6 701.44 169.81 699.14 170.28 697.76 169.81 695.97 168.62 694.81 169.04 693.17 169.66 689.65 169.5 687.71 169.91 687.57 169.75 688.35 170.64 689.08 171.37 688.8 172.66 689.02 173.38 688.57 175.23 688.13 176.96 687.07 178.36 685.5 179.81 683.77 179.48 683.71 180.6 684.21 181.55 685.39 181.83 686.28 181.1 687.12 180.43 688.24 180.54 689.25 180.99 689.64 182.5 689.58 184.34 689.58 187.08 689.36 189.54 689.25 191.22 688.8 193.18 687.29 194.57 686.62 195.92 686.9 196.75 686.63 197.36 688.2 197.82 688.7 197.37"/>
    <polygon class="st3" points="683.01 210.56 683.78 211.07 683.83 212.65 684.74 213.4 686.3 213.63 687.05 215.33 686.22 216.47 685.17 217.16 683.49 217.32 683.33 219.18 683.09 220.31 682.44 221.62 682.33 223.68 683.51 224.75 685.53 225.08 687.5 225.06 688.15 225.81 689.04 225.82 689.86 226.21 691.45 226.53 692.53 226.11 693.11 225.48 693.15 224.68 693.14 224.35 693.26 221.85 693.2 220.86 693.78 219.88 694.79 219.87 695.7 219.49 695.63 218.83 696.56 217 696.61 215.17 697.36 214.52 697.58 213.33 698.19 213.09 698.94 212.23 699.23 211.21 697.96 210.66 698.04 209.43 697.68 207.68 698.75 207.74 698.97 206.96 699.47 205.13 698.99 204.81 698.56 203.69 697.9 203.41 697.9 202.56 696.58 201.83 696.15 200.96 693.94 199.67 692.45 199.67 691.99 198.96 691.25 199.38 689.58 197.76 688.84 197.74 688.29 198.23 686.56 197.72 686.51 199.33 685.89 200.56 685.22 201.84 684.16 204.08 683.54 205.53 682.26 206.87 681.42 208.1 680.72 209.5 681.03 209.6 683.01 210.56"/>
    <polygon class="st3" points="675.3 241.83 675.42 241.64 675.3 241.83 675.3 241.83"/>
    <polygon class="st3" points="693.16 242.71 692.95 242.48 693.16 242.71 693.16 242.71"/>
    <polygon class="st3" points="685.14 238.71 685.13 238.71 685.14 238.71 685.14 238.71"/>
    <polygon class="st3" points="698.82 242.94 698.69 242.75 698.82 242.94 698.82 242.94"/>
    <polygon class="st3" points="698.41 243.59 698.42 243.72 698.41 243.59 698.41 243.59"/>
    <polygon class="st3" points="675.39 241.11 675.4 241.11 675.41 241.12 675.39 241.11"/>
    <polygon class="st3" points="675.23 238.2 675.26 237.96 675.23 238.2 675.23 238.2"/>
    <polygon class="st3" points="682.39 221.3 682.39 221.3 682.38 221.33 682.39 221.3"/>
    <polygon class="st3" points="723.46 187.7 723.35 186.97 722.29 187.25 722.46 184.73 722.73 183.62 722.51 182.05 722.29 180.88 722.23 179.09 720.95 177.86 720.11 176.63 720.39 175.68 720.05 175.06 719.44 174.78 719.44 174 720 173.78 719.66 173.05 719.6 172.32 718.93 171.26 718.65 170.53 718.26 169.74 716.48 170.23 715.14 171.4 714.23 170.79 712.36 171.6 711.11 171.56 708.36 172.7 706.24 174.7 704.85 173.78 703.46 174.99 704.05 176.31 703.35 177.03 703.43 179.81 703.98 181.12 703.41 181.88 702.43 181.72 702.56 182.6 703.04 183.52 702.41 184.25 702.94 185.18 702.58 186.92 701.69 187.98 701.26 188.95 700.98 190.19 700.4 190.76 699.99 191.39 700.49 192.41 700.68 193.43 701.07 194.16 702.15 195.07 701.97 195.81 701.63 196.89 702.16 198.08 702.53 198.23 702.57 199.15 702.16 199.74 701.92 200.25 702.66 200.85 703.47 201.39 704.62 201.77 705.62 202.05 707.78 202.22 708.43 202.94 707.99 203.55 708.5 204.33 709.37 204.84 710.38 204.62 711.42 203.95 712.3 204.3 712.73 204.67 712.91 204.53 713.32 203.77 713.15 202.55 713.51 202.13 713.93 201.3 714.01 200.38 715.06 199.84 715.89 200.28 716.64 200.87 716.86 200.05 717.7 201.11 718.09 201 718.21 199.77 719.55 199.44 720.16 199.33 720.33 198.66 720.27 197.87 720.95 197.65 720.61 196.81 721.23 195.58 721.78 194.85 721.17 194.35 722.18 193.12 722.01 191.44 723.35 191 723.52 190.1 723.07 189.37 723.69 188.76 723.46 187.7"/>
    <polygon class="st3" points="715.69 200.58 715.06 200.25 714.36 200.62 714.27 201.43 713.8 202.35 713.53 202.66 713.7 203.83 713.17 204.8 712.72 205.15 712.08 204.6 711.46 204.35 710.49 204.97 709.31 205.22 708.24 204.6 707.55 203.53 707.96 202.97 707.61 202.57 705.56 202.41 704.52 202.12 703.29 201.71 702.46 201.15 701.51 201.14 700.08 202.47 698.26 202.62 698.26 203.17 698.85 203.42 699.29 204.57 699.9 204.98 699.66 205.81 699.32 207.06 699.02 208.12 698.14 208.07 698.2 208.34 698.4 209.41 698.34 210.43 699.67 211.01 699.24 212.44 698.41 213.4 697.9 213.6 697.69 214.71 696.97 215.34 696.9 217.12 696.01 218.9 696.09 219.72 694.83 220.24 693.99 220.24 693.57 220.95 693.61 221.68 696.66 221.76 696.52 222.48 697.17 222.84 697.33 222.58 699.12 222.58 699.29 222.92 700.26 223.09 700.26 224.12 701.22 225.07 702.39 225.04 702.99 224.24 703.16 223.23 703.46 222.74 704.15 222.78 704.15 221.07 703.83 220.52 704.19 220.28 704.31 219.06 704.54 218.19 704.98 217.12 705.73 215.93 706.44 215.06 706.52 214.79 706.48 213.76 707.31 213.01 707.94 213.4 708.38 214.23 708.66 214.23 708.54 212.93 709.37 212.69 710.83 212.53 711.78 212.46 712.57 212.85 712.97 212.85 712.89 213.88 713.52 214.08 713.72 214.67 714.27 215.22 715.5 215.18 715.5 214.59 714.82 214.27 714.39 213.29 713.6 212.26 713.95 211.98 714.11 211.03 714.63 210.95 714.78 210.24 713.84 209.29 713.91 208.94 714.31 208.86 714.7 208.66 714.59 207.99 714.03 207.71 713.84 207.24 714.59 206.96 715.5 206.49 715.22 205.54 714.9 204.83 715.69 204.23 716.13 203.68 715.93 203.09 716.6 202.77 717.27 202.65 717.16 201.94 716.68 201.15 716.92 201.55 715.69 200.58"/>
    <polygon class="st3" points="704.15 222.97 704.15 222.97 704.14 222.97 704.15 222.97"/>
    <polygon class="st3" points="674.78 232.58 675.12 232.08 675.12 232.08 674.78 232.58"/>
    <polygon class="st3" points="674.82 237.24 674.81 237.24 674.81 237.24 674.82 237.24"/>
    <polygon class="st3" points="684.6 213.53 684.6 213.53 684.64 213.56 684.6 213.53"/>
    <polygon class="st3" points="680.64 209.67 680.74 209.7 680.74 209.7 680.64 209.67"/>
    <polygon class="st3" points="703.66 223.12 703.49 223.38 703.33 224.38 702.58 225.4 701.07 225.44 699.89 224.27 699.89 223.4 699.05 223.25 698.9 222.95 697.53 222.95 697.29 223.33 696.12 222.66 696.22 222.11 693.62 222.05 693.51 224.35 693.52 224.69 693.47 225.63 692.7 226.43 691.48 226.91 689.73 226.54 688.92 226.17 687.99 226.17 687.33 225.43 685.5 225.44 683.4 225.11 682.79 225.54 682.15 226.84 680.7 228.44 680.92 230.13 681.58 231.01 680.22 231.01 680.06 231.29 678.35 231.29 677.76 231.66 676.89 232.32 675.22 232.25 674.88 232.76 674.71 232.75 674.66 233.37 675.19 233.77 675.2 234.38 675.05 234.81 674.21 235.57 674.05 236.18 674.15 236.75 674.94 237.09 675.45 237.92 675.33 238.83 675.32 239.12 675.79 239.43 675.79 240.38 675.29 240.38 675.34 240.86 675.59 241.01 675.6 241.68 675.31 242.17 675.97 242.47 677.45 242.62 678.12 242.1 678.96 241.51 679.9 241.64 681.45 240.79 683.13 239.82 683.94 239.71 685.01 238.57 685.12 238.68 685.11 238.52 687 238.24 686.78 237.5 688.38 238.35 689.63 238.54 690.95 238.81 691.83 240.15 692.55 241 692.55 241.79 693.27 242.54 694.43 242.95 695.18 243.83 695.75 244.79 696.32 244.96 696.94 244.48 697.69 243.72 698.23 243.61 698.22 241.73 698.94 242.78 700.35 243.22 701.9 243.26 701.9 243.26 701.99 243.26 701.9 243.45 701.9 243.45 702.09 243.05 702.57 242.98 703.44 242.62 704.47 241.99 705.22 241.16 705.49 241 705.37 239.26 705.69 238.27 705.57 235.54 706.21 234.99 706.32 232.89 706.13 231.87 706.13 228.43 705.81 228.07 705.89 225.38 705.14 224.59 704.43 223.96 704.14 222.97 704.19 223.15 703.66 223.12"/>
    <polygon class="st3" points="672.48 240.35 673 240.47 673 240.47 672.53 240.36 672.48 240.35"/>
    <polygon class="st3" points="687.17 238.19 687.17 238.19 687.24 238.38 687.17 238.19"/>
    <polygon class="st3" points="692.8 242.33 693.16 242.71 692.8 242.33 692.8 242.33"/>
    <polygon class="st3" points="672.25 241.14 672.41 240.34 672.41 240.34 672.25 241.14"/>
    <polygon class="st3" points="698.42 243.77 698.42 243.77 698.42 243.77 698.42 243.77"/>
    <polygon class="st3" points="685.14 238.71 685.14 238.71 685.14 238.71 685.14 238.71"/>
    <polygon class="st3" points="660.78 250.61 660.8 250.48 660.78 250.61 660.78 250.61"/>
    <polygon class="st3" points="698.64 242.68 698.64 242.67 698.81 242.94 698.81 242.94 698.81 242.94 698.64 242.68"/>
    <polygon class="st3" points="662.7 247.47 662.76 247.41 662.7 247.47 662.7 247.47"/>
    <rect class="st3" x="662.68" y="247.48" width="0" height="0" transform="translate(290.04 848.76) rotate(-78.69)"/>
    <polygon class="st3" points="666.25 261.78 666.25 261.78 666.28 261.79 666.25 261.78"/>
    <polygon class="st3" points="669.83 272.36 669.83 272.36 669.83 272.38 669.83 272.36"/>
    <polygon class="st3" points="670.24 264.22 670.24 264.21 670.24 264.22 670.24 264.22"/>
    <polygon class="st3" points="670.23 264.23 670.15 264.25 670.15 264.25 670.23 264.23"/>
    <polygon class="st3" points="666.22 262.78 666.23 262.69 666.22 262.78 666.22 262.78"/>
    <polygon class="st3" points="672.72 270.33 672.72 270.33 672.72 270.33 672.72 270.33"/>
    <rect class="st3" x="674.87" y="242.08" width="0" height=".36" transform="translate(397.35 903.41) rotate(-86.98)"/>
    <polygon class="st3" points="670.49 242.43 670.4 242.35 670.4 242.35 670.48 242.42 670.49 242.43"/>
    <polygon class="st3" points="670.39 241.38 670.39 241.35 670.39 241.37 670.39 241.38"/>
    <polygon class="st3" points="670.75 243.24 670.75 243.24 670.74 243.25 670.75 243.24"/>
    <polygon class="st3" points="687.23 238.38 687.24 238.38 687.23 238.38 687.23 238.38"/>
    <polygon class="st3" points="661.49 248.63 661.49 248.63 661.49 248.64 661.49 248.63"/>
    <polygon class="st3" points="692.95 242.74 692.19 241.94 692.19 241.14 691.53 240.37 690.73 239.14 689.56 238.9 688.24 238.69 687.37 238.23 687.46 238.53 685.24 238.87 684.11 240.06 683.22 240.18 681.63 241.11 679.97 242.02 679.05 241.89 678.33 242.4 677.65 242.93 677.5 243.91 677.77 245.01 677.44 245.34 677.3 247.13 676.79 247.72 677.81 248.99 679.8 249.09 678.75 250.43 678.63 251.65 678.05 252.48 677.71 253.24 678.77 255.22 682.1 255.82 682.74 256.22 683.18 256.76 683.66 256.88 684 256.58 684.87 256.58 685.56 255.33 687.11 253.91 689.71 253.55 691.19 252.86 692.15 251.82 692.34 250.36 692.13 248.08 692.12 247.23 692.81 246.86 692.66 245.52 692.79 243.23 692.95 242.74"/>
    <polygon class="st3" points="686.42 266.11 686.02 265.43 686.06 264.9 684.65 265.12 684.16 265.45 680.42 265.45 679.6 265.73 677.88 265.76 677.24 265.41 676.4 264.76 673.87 264.26 672.71 263.78 671.05 263.56 670.44 264.26 670.6 264.92 671.68 266.59 672.93 267.12 673.47 267.7 675.1 268.6 676.62 268.61 677.06 268.89 677.75 269.01 679.12 270.28 679.27 270.16 679.38 268.65 680.1 268.1 680.74 268.46 681.78 268.58 682.59 269.55 683.61 269.94 684.42 269.78 684.54 269.23 684.9 268.51 685.85 268.24 686.6 268.4 687.07 268.12 687.09 268.03 686.62 267.73 686.42 266.11"/>
    <path class="st3" d="M683.58,270.32l-1.21-.46-.77-.93-1-.13-.46-.27-.4.3-.11,1.5-.5.43-1.54-1.42-.69-.14-.38-.25h-1.51s-1.47-.83-1.47-.83l-.04,1.17-.64,1.15-1.39.74-1.21.6-.38.94,1.11.18.28.61.06,1.65-.31.58.12.96.78.92,1.07.44.36-.36.28-.83.47-1.07,1.78-.83,1.3-.43,1.5.08,1.66.4.47.63.43.63.08,1.38.95.47.08-1.23.63-.36.4-.59-.08-.32-.55-.55s-.36-.47-.4-.71-.04-.95-.04-.95l-.16-.71.36-.79.28-.55h.79l.24-.24.55-.12-.08-.95v.08s-.73.15-.73.15Z"/>
    <polygon class="st3" points="667.53 260.41 668.27 259.92 668.82 258.96 669.91 258.96 670.86 258.52 671.6 258.37 672.53 256.11 673.33 255.33 675.5 255.96 677.06 256.25 677.98 256.47 679.4 256.85 681.11 256.46 681.89 256.74 682.71 256.75 682.48 256.47 681.95 256.15 678.53 255.55 677.3 253.25 677.73 252.3 678.27 251.52 678.39 250.29 679.08 249.42 677.62 249.34 676.32 247.71 676.94 246.98 677.09 245.18 677.37 244.9 677.12 243.93 677.28 242.97 675.85 242.82 675.01 242.44 674.24 242.4 673.79 242.05 673.58 241.44 672.9 240.62 672.55 240.55 672.39 241.32 671.79 241.3 671.06 241.51 670.57 241.53 670.58 242.26 671.06 242.68 670.9 243.4 670.2 243.58 669.32 244.68 668.4 244.92 668.26 244.89 667.89 245.41 667.33 246.1 666.38 246.13 665.72 246.04 665.75 246.1 665.7 246.75 664.66 247.02 663.79 247.3 663.18 247.3 662.85 247.57 662.76 248.06 661.82 248.27 661.64 248.73 661.15 249.44 660.78 251.81 661.36 252.68 662.43 252.89 663.49 252.58 663.64 252.22 664.49 252.55 664.95 253.78 665.26 255.3 664.24 255.7 664.49 257.03 664.17 257.75 664.21 258.52 664.94 259.06 664.7 260.51 665.66 261.19 666.69 260.33 667.53 260.41"/>
    <polygon class="st3" points="700.26 243.58 698.71 243.09 698.59 242.93 698.6 243.91 697.87 244.06 697.18 244.76 696.4 245.36 695.51 245.1 694.88 244.04 694.22 243.26 693.27 242.93 693.14 243.32 693.02 245.51 693.19 247.06 692.49 247.45 692.49 248.06 692.71 250.37 692.5 251.98 691.38 253.18 689.78 253.9 687.27 254.25 685.83 255.58 685.08 256.95 684.14 256.95 683.76 257.28 683.28 257.16 683.19 258.52 683.73 259.13 684.32 259.27 685.19 259.27 685.84 260.28 687.05 261.54 688.53 262.83 691.54 263.7 692.56 263.78 694.57 263.34 696.57 262.63 697.62 262.3 699.67 263.69 701.08 264.54 701.44 265.12 702.21 265.51 702.38 265.59 701.86 265 701.11 263.41 699.8 261.24 698.81 258.51 698.22 256.65 697.94 255.27 698.61 254.2 698.93 253.77 698.85 253.37 698.65 252.31 698.97 251.71 699.68 250.09 700.47 247.44 701.38 245.35 701.58 244.68 702.09 244.56 702.21 244.16 702.01 243.45 702.06 243.63 700.26 243.58"/>
    <polygon class="st3" points="682.91 257.12 681.79 257.1 681.09 256.84 679.4 257.23 677.89 256.82 676.98 256.61 675.42 256.31 673.43 255.74 672.81 256.34 671.87 258.69 670.96 258.88 669.95 259.32 669.03 259.32 668.55 260.18 667.63 260.79 666.81 260.71 665.98 261.4 666.35 261.62 666.46 261.69 666.46 261.69 666.47 261.69 666.42 262.53 666.41 262.68 667.43 263.25 668.28 263.69 669.12 264.32 670.13 264.06 670.91 263.17 672.83 263.44 673.98 263.91 676.55 264.42 677.44 265.1 677.97 265.39 679.57 265.36 680.39 265.08 684.05 265.08 684.55 264.77 686.09 264.53 686.3 263.83 685.09 261.77 684.69 261.58 684.68 260.73 684.48 260.37 684.5 259.63 684.26 259.63 683.53 259.46 682.81 258.65 682.91 257.12"/>
    <polygon class="st3" points="672.83 278.24 672.84 278.24 672.83 278.24 672.83 278.24"/>
    <polygon class="st3" points="701.18 265.4 700.81 264.81 699.47 264 697.56 262.7 696.68 262.98 694.64 263.7 692.59 264.15 691.45 264.06 688.24 263.13 688.23 263.06 686.79 261.8 685.55 260.5 684.99 259.64 684.87 259.64 684.85 260.28 685.05 260.63 685.05 261.35 685.35 261.48 686.69 263.79 686.42 264.71 686.43 264.71 686.39 265.34 686.78 266.02 686.96 267.52 687.38 267.78 687.19 267.76 688.06 267.84 689.05 268.16 689.56 268.87 689.72 269.58 689.32 269.9 688.97 270.85 688.42 271.32 687.74 271.95 686.64 272.27 686.56 273.18 686.36 273.54 685.53 273.77 685.21 274.17 685.25 274.96 685.65 275.63 686 276.07 685.96 276.5 685.37 276.78 685.21 277.09 685.13 280.06 685.65 280.33 685.41 280.77 684.78 280.93 684.18 281.05 684.07 281.56 685.02 282.23 685.77 282.63 686.79 282.43 687.55 282 687.58 280.81 688.45 280.57 689.4 279.7 690.39 278.71 690.79 278.4 692.25 278.4 693.32 278.08 694.5 277.41 695.18 276.86 695.02 275.63 695.41 274.96 695.25 273.93 695.29 272.03 695.81 271.08 696.4 270.02 697.55 268.71 699.44 267.17 701.14 266.97 702.69 267.05 703.24 266.66 703.17 266.35 702.05 265.84 701.18 265.4"/>
    <polygon class="st3" points="702.01 243.45 701.9 243.45 701.9 243.45 702.01 243.45"/>
    <polygon class="st3" points="687.15 267.83 687.17 267.76 687.19 267.76 687.17 267.76 687.15 267.83"/>
    <polygon class="st3" points="675.25 237.96 675.23 238.2 675.23 238.2 675.25 237.96"/>
    <polygon class="st3" points="671.13 275.17 671.13 275.17 670.82 275.74 670.82 275.75 670.82 275.74 671.13 275.17"/>
    <polygon class="st3" points="665.1 263.88 664.12 263.87 663.45 262.76 662.62 262.76 662.26 263.28 661.64 263.28 660.88 262.28 660.04 262.18 659.14 263.48 658.51 263.91 657.75 263.91 657.34 265.19 657.63 266.11 657.07 266.66 657.26 267.3 657.82 267.8 657.75 268.23 658.01 269.07 658.46 269.43 658.22 270.43 657.9 270.68 658.12 271.8 658.29 272.37 657.91 272.93 657.75 273.57 658.13 273.84 658.33 274.26 659.86 274.38 660.22 275.02 660.21 275.95 661.18 277.06 662.09 277.06 662.41 276.77 662.34 275.8 662.42 274.51 662.62 273.18 663.32 272.24 664.01 272.8 664.87 272.84 665.32 273.41 665.83 273.57 666.64 273.19 667.87 273.26 668.33 272.84 669.48 272.73 669.97 271.54 671.29 270.87 672.59 270.19 673.13 269.21 673.17 267.92 672.69 267.4 671.44 266.89 670.25 265.03 670.11 264.44 669.04 264.71 668.09 264 667.26 263.57 666.22 262.99 665.64 263.29 665.1 263.88"/>
    <polygon class="st3" points="646.61 273.33 646.68 272.64 646.91 270.72 646.2 270.42 645.66 270.14 645.18 269.07 645.14 267.74 643.89 265.99 643.03 265.36 642.39 265.24 641.86 264.71 642.34 263.81 643.1 262.87 644.28 262.87 645.26 261.6 646.02 260.72 646.48 260.03 646.48 259.66 645.76 259.08 645.38 258.7 645.81 257.8 646.17 257.33 646.25 256.49 647.01 255.66 647.22 254.41 646.47 253.55 646.32 253.47 645.81 253.42 645.07 252.91 644.03 252.87 643.08 252.51 641.08 252.17 639.28 252.28 637.92 253.83 637.24 255.07 635.93 256 635.68 255.17 635.05 254.65 634 254.55 633.39 255.13 633.49 255.65 633.62 256.55 633.12 256.82 632.89 257.22 632.73 258.5 632.06 259.29 631.98 260.38 631.63 260.65 631.66 261.92 632.01 261.92 633.2 262.67 633.33 263.65 633.06 265.05 631.79 265.05 631.23 265.49 629.84 265.41 629.17 265.84 627.43 265.88 625.83 265.49 624.92 265.66 624.57 266.99 623.99 267.9 624.26 268.56 624.48 269.57 625.6 269.67 626.09 270.56 626.38 271.62 626.41 273.12 626.02 273.66 626.13 276.19 626.32 276.24 626.44 275.62 627.89 275.76 628.77 276.64 629.38 277.48 630.25 277.67 630.48 276.65 631 275.21 631.21 274.24 632.67 273.43 633.54 273.23 635.34 273.07 635.91 272.72 636.92 273.33 637.83 274.44 638.8 275.25 639.55 275.65 640.49 275.17 641.97 274.79 642.97 275.63 643.84 275.56 645.17 274.76 645.58 274.83 645.97 274.08 646.61 273.33"/>
    <polygon class="st3" points="675.12 232.08 675.11 232.08 675.12 232.08 675.12 232.08"/>
    <polygon class="st3" points="673 240.47 672.53 240.36 672.53 240.36 673 240.47"/>
    <polygon class="st3" points="674.54 232.58 674.54 232.58 674.54 232.58 674.54 232.58"/>
    <rect class="st3" x="674.91" y="234.6" width="0" height=".13"/>
    <polygon class="st3" points="675.11 232.08 674.78 232.58 674.78 232.58 675.11 232.08"/>
    <path class="st3" d="M644.46,283.7h1.04l.13-.2.83-.4,2.07-2.89.9-1.57.53-.83v-1.08s-.55-.19-.55-.19l-.89-.35-.4-.05-.08.43-1.8-.14-.62-.47-.11-.77-.28-.05-1.28.78-1.11.09-.97-.82-1.27.33-1.06.55-.96-.52-1.02-.85-.91-1.11-.75-.44-.46.28-1.86.16-.82.19-1.25.7-.18.83-.52,1.45-.25,1.09.36.46.88.71v1.08h.81l1.46-.24-.43.95-.47.51v1.19l.67.87.24.55-.47.55.04,1.23.4.47.51.36h1.07l.12-.71s-.24-.08-.63-.32c-.4-.24-.47-.28-.47-.28l-.08-.79.43-.83.59-.83s-.08.4-.12.67c-.04.28.16.4.16.4l.47.63.24.55h1.46c.28,0,1.34-.08,1.34-.08l.24-.55h.71l1.78-.04.12.16-.12,1.54-.71.28-1.34.63-1.19.4-1.19-.16-.75.71v.71l.36.24h1.23l.36-.36.91-.63,1.82-.24,1.34-.32,1.46-.47.59-.04h-.17s-.14-3.11-.14-3.11Z"/>
    <polygon class="st3" points="675.41 241.63 675.3 241.83 675.3 241.83 675.41 241.63"/>
    <polygon class="st3" points="673.31 269.24 673.31 269.23 673.36 267.85 673.31 269.24"/>
    <polygon class="st3" points="668.18 244.71 668.18 244.7 668.18 244.7 668.18 244.71"/>
    <rect class="st3" x="670.19" y="264.19" width="0" height=".1"/>
    <polygon class="st3" points="672.41 240.34 672.25 241.14 672.25 241.14 672.41 240.34"/>
    <polygon class="st3" points="672.97 269.89 672.98 269.86 672.72 270.33 672.72 270.33 672.97 269.89"/>
    <polygon class="st3" points="666.37 245.95 666.3 245.94 666.31 245.94 666.37 245.95 666.37 245.95"/>
    <polygon class="st3" points="674.81 237.24 674.82 237.24 674.81 237.24 674.81 237.24"/>
    <polygon class="st3" points="660.9 249.9 660.84 250.26 660.89 249.9 660.9 249.9"/>
    <polygon class="st3" points="675.13 239.18 675.13 239.18 675.13 239.18 675.13 239.18"/>
    <polygon class="st3" points="675.11 240.42 675.11 240.42 675.09 240.29 675.11 240.42"/>
    <polygon class="st3" points="675.13 239.16 675.13 239.18 675.13 239.16 675.13 239.16"/>
    <polygon class="st3" points="682.26 221.58 682.26 221.58 682.26 221.57 682.26 221.58"/>
    <path class="st3" d="M624.28,256.04l.6.15-.08,1.02.6.3.88.38,1.32.15h.91s1.16.91,1.16.91l.67.35,1.46-.25.59-.7.18-1.28.3-.52.36-.2-.09-.64-.11-.56-.39-.41-.33-.75.08-1.51-.04-.98.44-.91v-2.37l.24-1.53.36-1.25.27-1.25.24-.73.31-.74.59-.67.43-.6.44-.05,1.43.08.06-1.51v-.55l-.43-.67s.32-.2-.24-.2h-1.27l-.36,1.03s-.67.36-.67.04v-1.27s.32-.51.32-.67.24-.59.24-.59l.47-.32.67.36,1.19-.04.99-1.15.75-.75,1.27-.2.51-.47.16-.83v-1.38l1.27-.12.4-.59-.24-.67-.47-.44-.95-.12-.91.16-.99.67-1.54.67-1.19.67-.91.55h-1.38l-.75.44-1.11.63-.63.28v1.5s-.16.28-.16.47-.43.67-.43.67l.32,1.3.51.32-.2.71.51.71.16.63-.12.99-.28.4.24.75.16.44-.32.63-.36,1.11-.4,1.19-.95,1.3-1.03,1.62-.99,1.3-.99,1.34-.99,1.19-1.58,1.03-.87.44-.38.62.14.47.94.47Z"/>
    <polygon class="st3" points="648.48 242.13 648.44 242.83 648.75 243.22 648.72 244.33 649.27 245.2 649.88 245.19 650.25 244.9 650.73 244.08 651.28 243.56 651.36 242.81 651.78 242.62 653.58 242.72 654.32 243.05 654.3 244.58 654.63 244.72 655.18 243.95 656.09 243.98 656.38 243.52 657.93 243.67 658.14 243.96 658.52 243.92 658.66 243.13 659.41 242.15 660.77 240.92 661.46 240.99 661.65 240.54 663.22 240.53 663.97 241.08 664.14 242.64 664.48 243.13 665.1 243.42 665.66 244 665.36 244.73 665.58 245.66 666.4 245.76 667.15 245.74 667.6 245.19 668.11 244.48 668.39 244.55 669.11 244.36 669.99 243.25 670.59 243.1 670.66 242.81 670.21 242.43 670.2 241.17 671.03 241.15 671.74 240.94 672.1 240.94 672.27 240.11 673.1 240.29 673.92 241.29 674.1 241.83 674.37 242.04 674.95 242.07 675.23 241.58 675.23 241.22 675 241.08 674.89 240.02 675.42 240.02 675.42 239.63 674.95 239.31 674.96 238.8 675.07 238 674.69 237.38 673.82 237.01 673.68 236.16 673.88 235.38 674.74 234.6 674.83 234.32 674.82 233.96 674.28 233.54 674.37 232.39 674.69 232.39 675.04 231.87 676.77 231.95 677.55 231.36 678.24 230.93 679.85 230.93 680.01 230.65 680.85 230.65 680.57 230.27 680.32 228.32 680.85 227.74 681.86 226.62 682.5 225.29 683.1 224.87 681.96 223.83 682.09 221.49 682.75 220.17 682.97 219.13 683.15 216.99 685.05 216.81 685.99 216.18 686.63 215.29 686.04 213.97 684.58 213.75 683.47 212.83 683.42 211.27 682.83 210.88 680.89 209.94 680.56 209.83 679.99 210.76 679.24 212.02 678.73 212.81 678.89 214.79 678.61 215.18 678.41 216.05 678.1 217.36 677.7 218.5 676.95 219.41 675.72 220.28 674.38 221.43 673.23 221.51 673 221.83 672.09 221.86 671.49 222.18 670.35 222.97 668.96 223.96 667.78 225.07 667.23 226.29 666.87 227.48 666.59 228.86 666.2 229.77 665.21 230.8 664.42 231.59 663.75 232.34 663.83 233.13 662.52 233.96 661.89 234.08 661.26 234.36 660.27 235.15 660.19 235.66 658.69 236.97 658.25 237.12 657.78 237.52 655.21 237.52 654.93 237.8 654.06 238.67 653.11 238.9 652.08 239.81 650.11 240.45 649.2 240.68 648.76 241.12 648.09 241.08 647.96 241.19 647.83 241.9 648.48 242.13"/>
    <polygon class="st3" points="684.97 217.01 684.97 217.01 685.09 216.99 684.97 217.01"/>
    <polygon class="st3" points="635.42 241.8 635.07 242.28 634.49 242.95 634.22 243.59 633.99 244.29 633.72 245.54 633.36 246.78 633.13 248.26 633.13 250.68 632.7 251.59 632.74 252.49 632.66 253.93 632.94 254.57 633.19 254.81 633.87 254.17 635.2 254.3 635.99 254.96 636.13 255.41 636.96 254.82 637.64 253.6 639.11 251.92 641.1 251.8 643.18 252.16 644.13 252.51 645.18 252.55 645.94 253.07 646.27 253.1 647.24 251.91 647.57 251.26 648.11 250.35 648.11 249.44 648.9 249.15 649.17 248.47 649.17 247.28 648.98 245.42 648.35 244.44 648.38 243.34 648.07 242.95 648.1 242.38 647.41 242.13 647.55 241.39 646.59 241.35 645.48 241.59 644.65 242.15 643.86 242.38 643.58 242.86 643.27 244.12 642.75 244.95 642.04 245.74 640.94 245.86 639.24 245.86 637.93 245.78 637.3 245.43 636.67 244.87 636.15 244.36 636.11 243.77 636.51 243.05 636.71 242.5 637.06 241.95 637.06 241.85 635.67 241.77 635.42 241.8"/>
    <polygon class="st3" points="666.28 261.79 666.28 261.79 666.26 261.78 666.28 261.79"/>
    <polygon class="st3" points="685.64 216.64 685.09 216.99 685.64 216.64 685.64 216.64"/>
    <polygon class="st3" points="670.46 243.33 670.09 243.42 670.34 243.35 670.46 243.33"/>
    <rect class="st3" x="686.83" y="215.27" width="0" height=".05" transform="translate(-28.99 290.67) rotate(-23.42)"/>
    <polygon class="st3" points="650.25 276.21 651.04 276.05 651.63 275.43 652.9 274.64 655.93 273.14 655.78 270.69 655.86 269.78 656.73 269.32 657.39 268.16 657.42 267.94 656.94 267.5 656.66 266.56 657.22 266.01 656.96 265.19 657.49 263.54 658.4 263.54 658.91 263.2 659.86 261.79 661.08 261.93 661.82 262.91 662.07 262.91 662.43 262.4 663.65 262.39 664.32 263.5 664.94 263.51 665.45 262.98 666.04 262.67 666.05 262.48 666.09 261.89 665.35 261.45 665.37 261.43 664.3 260.68 664.54 259.22 663.85 258.71 663.8 257.68 664.11 256.98 663.82 255.47 664.84 255.07 664.6 253.88 664.2 252.83 663.84 252.69 663.76 252.88 662.45 253.27 661.15 253.01 660.4 251.9 660.83 249.27 661.33 248.54 661.55 247.95 662.44 247.76 662.51 247.38 663.05 246.94 663.76 246.94 664.56 246.67 665.35 246.46 665.38 246.17 665.27 245.94 664.97 244.7 665.23 244.08 664.86 243.71 664.24 243.42 663.78 242.77 663.62 241.28 663.1 240.9 661.89 240.9 661.68 241.38 660.89 241.3 659.68 242.39 659.01 243.28 658.83 244.25 657.98 244.34 657.73 244.01 656.57 243.9 656.28 244.35 655.36 244.32 654.75 245.16 653.93 244.83 653.95 243.29 653.46 243.06 651.85 242.99 651.7 243.05 651.63 243.73 651 244.33 650.51 245.16 650.01 245.56 649.36 245.56 649.54 247.26 649.54 248.54 649.18 249.44 648.47 249.7 648.47 250.45 647.89 251.44 647.54 252.11 646.64 253.23 646.73 253.29 647.61 254.3 647.35 255.82 646.61 256.65 646.53 257.47 646.11 258.01 645.82 258.63 646.01 258.81 646.85 259.49 646.85 260.14 646.3 260.94 645.54 261.83 644.46 263.23 643.27 263.23 642.63 264.02 642.31 264.64 642.57 264.9 643.18 265.02 644.17 265.75 645.5 267.62 645.54 269.02 645.94 269.88 646.35 270.08 647.3 270.49 646.96 273.49 646.27 274.3 645.87 275.06 645.97 275.76 646.38 276.08 647.74 276.18 647.82 275.74 648.63 275.85 649.54 276.21 650.09 276.4 650.25 276.21"/>
    <polygon class="st3" points="663.98 257.73 663.98 257.73 663.98 257.72 663.98 257.73"/>
    <path class="st3" d="M672.79,278.4l-1.09-.45-.91-1.06-.15-1.19.32-.59-.05-1.51-.16-.34-1.11-.17-1.14.11-.49.45-1.3-.08-.85.41-.75-.24-.42-.53-.81-.04-.49-.39-.41.56-.19,1.22-.08,1.25.09,1.13-.55.5h-1.22l-1.17-1.34v-.97s-.21-.39-.21-.39l-1.55-.12-.26-.53-.51-.36.26-.97.31-.44-.13-.42-.27-1.36.4-.31.16-.65-.36-.28-.19-.6-.51.9-.79.41-.07.69.17,2.66-1.29.65-1.94.95-1.23.77-.62.66-.78.15-.12.14v1.25s-.58.92-.58.92l-.91,1.57-2.13,2.98-.83.39-.18.28h-.86l.11,2.48,1.08.07v-.44l-.55-.24.47-.71.4-.47.63.32-.16.83v.63s.63.47.79.47,2.21.28,2.21.28l1.86-.12.63-.36,1.11.43,2.02.44,1.34.75.63-.12-.16-.55-.08-1.3.63-.91,1.07-1.34.2-1.27.59-.75.95-.2,1.42-.63.4-.71.32-1.27,1.42-1.11,1.7-.12,1.7.2,1.03.59.2,1.23-1.23.2s-.75.32-.75.71-.04.99-.04.99l.32.63-.55,3.16-.24.75.67.67.67.83.75.04,1.38-.51.87-.24.08-1.3,1.34-1.54.28-1.03.75-.47.32-.99.32-.32-.91-.87-.12-2.25.11-.4h0l-.05.16Z"/>
    <polygon class="st3" points="661.28 248.94 661.28 248.94 661.33 248.87 661.28 248.94"/>
    <path class="st3" d="M610.38,271.98l.55.99,1.13.19.23.27,1.16.12.08.11,1.11.07,1.33-1.02h.82l.23-.08.16-.72-.2-.59.44-.17.59-.63.52.33h.09l.79-.21.27-.68.8-.17.58-.52.41-.14.18-.32-.07-.84-.28-.16v-.63l1.69-.1.05.37.68.2.53-.84.38-1.47,1.22-.23,1.64.4,1.58-.04.68-.44,1.37.08.55-.43h1.1l.2-1.05-.1-.76-.95-.6h-.6l-.04-1.81.36-.28.06-.75-1.41.25-.81-.42-1.08-.85h-.81l-1.42-.17-.91-.4-.83-.42.08-.96-.36-.1-1.1-.55-.12-.4.15-.11-.75.55-1.11.04-.16.83-.47.75-.12.75-.71.71-.4.36-.28,1.15-.67.55-.28.36.32,1.42.16.51,1.34,1.3.32.71.08,2.02-.28.28-.43-.16.16-.99-.43-.44-.91.16s-.2.2-.2.47v1.78l-.67.28-.99-.04-.51-.4-.32.67-.4.95-.71.04-.55-.12.32.95-.28.32-.99-.2-.47-.36-.55.32-1.34-.08-.59-.75-.26-.14-.18,1.56.64.54Z"/>
    <polygon class="st3" points="664.66 246.84 664.62 246.85 664.66 246.84 664.66 246.84"/>
    <rect class="st3" x="675.13" y="239.18" width="0" height="0"/>
    <rect class="st3" x="675.3" y="241.83" width="0" transform="translate(211.75 789.23) rotate(-69.44)"/>
    <rect class="st3" x="674.81" y="237.24" width="0" height="0"/>
    <rect class="st3" x="675.23" y="238.2" width="0" height="0" transform="translate(395.37 897.26) rotate(-86.42)"/>
    <rect class="st3" x="672.5" y="240.33" width="0" height=".05" transform="translate(293.21 845.48) rotate(-77.59)"/>
    <rect class="st3" x="670.14" y="264.25" width="0" height="0"/>
    <path class="st3" d="M658.61,222.58l-.2,1.38h-.63l-.24.55.36.32,1.62-.4s1.19-.83,1.34-.95c.16-.12,1.15-.95,1.15-.95l.63-1.07.67-1.38-.04-.83h-1.7v-.4l-.28-.79.91-1.19-.08-2.77-.87.83-1.19,1.27-1.03,1.03-.43.99-.71,1.07-.16.28.12,1.3,1.27.04.2.87-.28.32-.43.47Z"/>
    <path class="st9" d="M588.79,308.87l-.54-.27-1.07-.09-.1-1.02-.05-.91-.45-.41-.81-.03-.42-.38-.41-1.13-.22-.55-.68-.36-.44.04-.37.4-1.09-.03-.88-.18.16-.18s0-.09-.01-.13l-.22-.13-.99-.05h-.97s-.35-.41-.35-.41l-.45-.35-1.53-.09-.73.4-.4.52-2.17.02-.39.37-1.77.03-1.23.6-.48.73-.99,1.75-.7.36.03,1.42-.53.87-.96.57-.57.25-1.63-.03-.18.26-.08.45.31.21v.33l.13.26.52.38.22.8-.8.54-.76.25-.24.58-.14,1.15-.91.57-.83.35-.8-.33-.07.04.3.79.08.8.17.65.08.47.12,1.84.07.3.17.04-.06.45-.11.36-.81.42-.25.36-.28.59.06.73.5.03.42-.64h.48l.45.36.53.5.61-.11s.59-.14.7-.22.36-.36.48-.42c.11-.06.67-.22.67-.22l.48.25.89.92.5.17.22-.78-.45-.39-.53-.36.03-.92.61-.36.06-2.29.62-.56.87-.06.11-.53,1.01-1.48.5-.62.53-.03.67-1.03.22-.53-.08-1.4-.17-.36.28-.5.89-.33.87-.31s1.15-.03,1.15-.25.2-.92.2-.92l.73-.11.7-.39.95-.28.75-.17.48-.28,2.12-.08.42.39,1.37-.03.17.2.81.11.11.56.42.45,1.03.48.42.61.11.75.73.31.84,1.01.42.06.2-.75.31-.84.06-.56.36-.84.59-.89.86-1.43-.09.15-.67-.27Z"/>
    <polygon class="st9" points="578.64 299.74 579.16 299.69 579.71 299.34 580.32 298.7 581.14 298.58 581.81 298.18 582.73 298 583.23 298.22 583.81 298.58 584.4 298.67 585.44 297.94 586.66 297.78 586.8 296.98 587.52 296.8 587.76 296.44 589.63 296.56 590.54 296.56 591.66 296.53 591.76 295.87 591.21 295.77 590.93 295.32 590.43 295.15 589.95 294.85 589.39 294.79 589.06 294.48 588.78 294.51 588.53 293.39 587.27 293.39 587.02 293.39 586.99 292.86 586.46 292.72 585.81 292.83 585.56 293.17 583.69 293.03 583.69 292.86 582.46 292.78 582.32 293.22 581.73 293.48 581.09 293.81 580.64 294.04 580.39 294.46 579.83 294.85 579.41 295.18 579.13 295.18 578.91 295.43 578.77 295.54 577.96 295.57 577.57 295.54 577.68 296.02 577.99 296.72 577.99 297.19 577.88 297.47 577.82 298.34 577.76 298.73 577.46 298.87 577.44 299.17 578.09 299.42 578.64 299.74"/>
    <path class="st9" d="M561.03,319.09l-.07-.43-.17-.67-.08-.81-.38-1.01.49-.29.82.34.66-.28.74-.46.14-1.05.31-.76.89-.3.52-.36-.12-.43-.49-.35-.21-.41v-.23l-.35-.24.16-.79.31-.45,1.75.03.48-.21.86-.51.43-.71-.03-1.55.81-.42.94-1.67.54-.82,1.44-.68,1.67-.03.39-.37,2.14-.02.37-.45.86-.47,1.51.09-.03-1.32.1-.98-.48-.28-.79-.3-.36.1-.5.64-.06.48-1.79.03-.42-.36-2.15-.06-.36.56-.08.34-1.48.11h-.53l-.08.34-.59-.08-.36-.34-.03-.36-.36-.75-.17-.78-.53-.53-.64-.5-.11-.34h-.84l-.08,1.12-.59.14-.92.06-.39.42-.64.08-.36.28-.11.56.08,1.2-.31.22-.36.28-.39.11.06,3.1-.81.5-1.12.7-.78.48-.48.03-.64.45-.56.48-.11.53-.61.42-.56.42-.53-.03-.64.56-.84.34-.98.36-.78.45-.53.25-.73.5-.14.17.59.14h.75l.73-.42.81-.56.75-.45,1.01-.48.73.22.34.2-.34.5v.48l.34.39-.08,1.01.17.22h1.29l.34.17-.36.64.34.34.28.03-.06.53-.59.22-.56.42-.31.03.2.84-.03.17.34.2-.11.39.36.14-.06.48-.59.31-.5.25-.11.36.67-.11.48.14.25.36.25.22-.03.56-.48.42s-.45-.2-.39,0,.61.73.61.73l.42.11.45-.11.06-.48.7.11v.28l.67.08h1.08s-.05-.24-.05-.24l-.12-1.85Z"/>
    <path class="st9" d="M595.93,303.09s-.11-.22-.17-.39c-.06-.17.17-.36.17-.36l.25-.45.06-.34-.2-.53-.48-.56-.48-.33-.61-.31.03-1.82.34-.59.36-.61v-.31l-.42-.08-.45-.42s-.39-.28-.62-.48c-.22-.2-.45-.06-.45-.06l-.36.42-.8.02-.14.99h-.35l-1.09.03h-.93l-1.67-.11-.2.31-.62.16-.14.83-1.4.18-1.09.77-.84-.15-.59-.36-.37-.16-.78.15-.68.4-.73.11-.57.59-.65.42-.51.05-.1.93.03,1.42.45.36.25.3h.81l1.09.06.45.26v.09c.02.07.02.13.02.17l.4.08.89.02.35-.38.68-.07.89.48.28.68.38,1.06.25.23.81.03.66.6.06,1.05.07.71.87.09.56.28.73.29-.12.16.39-.53.61-.75,1.09-1.12,1.4-.59.73-.78,1.15-.89.73-.42.45-.28.64-.25-.22-.22-.59-.06Z"/>
    <polygon class="st3" points="561.38 321.15 561.38 321.15 561.38 321.15 561.38 321.15"/>
    <path class="st9" d="M601.16,288.83l-.79.4-1.23,1.3-.83.75s-.51.75-.67.91c-.16.16-.51,1.27-.51,1.27l-.95.43-.28.47.32.59.32.32v.4l.55.43h.71l.47-.24.47-.55.55-.32h.59l.59-.24-.04-.67-.4-.16-.12-.59-.08-1.11.28-.75.47-.67.51-.63.28-.55.28-.79-.28-.47-.24.47Z"/>
    <path class="st9" d="M609.03,284.74l-.44-.99.27-.71v-.95l-.04-.21-.13-.11-.72-.03-.46-.63.08-.74.3-.63,1.36.68.54.62.67.47.25.32.27.03.27-.31.69-.05.64.47.78.99.17.45.63.36.32.62-.05,1.02.08.11.7.08.35.46h1.38s.59-.41.59-.41l.48.14,1.19.45.33.06.17-.09v-.34s-.44-.31-.44-.31v-.7s-1.32-1.3-1.32-1.3l-.33-.47-.98-.03-.22-.77v-.46s-.59-.77-.59-.77l-.16-1.92.31-.78-.24-2.19.36-.64-1.51-1.4-1.29-.08-.08-.12-1.13-.12-.24-.28-1.17-.2-.62-1.11-.72-.6.22-1.93-.46-.31-1.03-.08-.83.47.51.91.2.28-.63.47-.55-.75-1.07-.79-.51-.24h-.36l.04-.4.75-.63.24-.91.51-.16h.36v-.51l-.71-.79-.51-.43-.63-.12-.95.2-.4.32h-.75l-.63.75-1.58.55.04.55-.63.2-.75-.28.17.06-.14.46.1.59.5.37.35.56.39.06.46-.39h.2s.23,0,.23,0l.59.15.4.96.21,1.26-.59.77-.5.2-.61-.11-.35-.19-.11.05.24,1.61.53.19.7.82.63.14h.26s1.36,0,1.36,0l.71,1.11.2.59h1.03s.89.6.89.6l.71.19.64.47.28.96-.37.41-.27-.25.24-.26-.19-.64-.51-.37-.7-.18-.82-.56h-1.18s-.28-.82-.28-.82l-.57-.88h-1.16s-.32,0-.32,0l-.77-.17-.72-.83-.65-.23-.31-2.09.51-.26.5.27.42.07.31-.12.44-.57-.18-1.09-.31-.73-.36-.09h-.19s-.07,0-.07,0l-.48.4-.72-.1-.42-.67-.55-.38-.14-.83.16-.51-.76-.07-.16-.44-.99.32h-.91l-.43-.24-.67.28-.91.08-.59-.28-.71.04s-.32.28-.47.44c-.16.16-.83.43-.83.43l-.36.2.04-.02.06.88.6,1.18.08,1.1.61,1.08.31.66.56.65-.39.48-.25,1-.49.18-.26.26-.71.04-.19,1.7-.53.18-.5.71-.14.62-.62.94-.27.27-.15,2.6.11.68.32.4.76.89-.09.73.73.13.36-.32.59-.55.87-.16,2.37.12,1.42.04.91.28,1.15.51.91.51.91.51.91.51.75.28h2.02l.67-.51,1.66-.67.87-.2,1.07.08h.15s.68-.46.68-.46l-.08-1.26Z"/>
    <polygon class="st3" points="589.94 285.83 589.94 285.87 589.94 285.82 589.94 285.83"/>
    <path class="st3" d="M626.14,277.66l-.06-.07.17-1-.47-.12-.13-2.92.39-.55-.03-1.35-.27-.98-.37-.66-1.19-.11-.27-1.24-.27-.65-.95-.28-.03-.27-1,.06v.08l.27.15.09,1.14-.3.55-.51.17-.56.52-.71.15-.27.67-1.04.26h-.22l-.35-.22-.44.47-.19.07.12.35-.23,1.02-.51.16h-.73l-1.12.86,1.61,1.49-.44.79.24,2.16-.31.78.15,1.73.6.79v.56s.13.45.13.45l.9.03.41.59,1.3,1.26.52-.07.27-.74-.1-1.12.95.12.47.39,1.53.05,1.25-.32,1.17-.99.6-1.13.03-.78.25-1.21-.15-.89s-.11-.12-.19-.21Z"/>
    <path class="st9" d="M619.1,286.57l-1.19-.45-.31-.09-.54.38h-1.68s-.37-.48-.37-.48l-.71-.08-.15-.2s-.09.02-.12.02l-.28.18-.06.64-.34.14.02.62-.1.65.56.86-.46.43.03,3.02-.42.72.02.44.32.36.27.59.49.49.13.57-.18.66-.72.16-.53-.02-.19.47-.36.36-.48.73-.25.47.02.51.3.37.38.61.24.29.43.4-.3.86-.19.02.06.88.42.27.39-.37.74-.06.79.19.46-.16h.98,0s.47.07.47.07h.01s.73-.6.73-.6l1.1-.98.99-.95h.66s.11-.48.11-.48l.46-.1-.11-1.74.2-.9.21-.66-.14-.73-.35-.43.21-.73-.08-.37-.44-.32.03-1.06.59-.47,1.09-.18.11-.31.28-.05.08-.63-.06-.09-.49.03-.91-.54-.49-.16-.53-.34-.19-.61v-.59s.54-.45.54-.45l-.07-.37-.23-.07-.21-.63-.18.1-.51-.09Z"/>
    <polygon class="st3" points="603.24 294.26 603.23 294.26 603.24 294.26 603.24 294.26"/>
    <path class="st3" d="M630.67,278.54l-.39-.49-1.12-.25-.67-.92-.77-.76-.99-.1-.09.47h0s-.17,1-.17,1c.03.03.06.07.09.1l.09-.03.21,1.21-.26,1.25-.03.83-.7,1.29-1.3,1.07-1.34.34-1.71-.05-.49-.4-.39-.05.07.75-.37,1.02-.67.1v.43s.44.31.44.31v.62s.19.62.19.62l.27.08.15.8-.57.48v.39s.13.4.13.4l.4.25.48.16.83.49.57-.03.27.36-.14,1.04-.33.06-.11.32-1.21.2-.38.3-.02.7.4.29.13.59-.19.64.28.35.18.91-.23.74-.19.83.12,1.99-.54.12-.12.52h-.8s-.9.87-.9.87l-1.11.99-.86.72-.2-.04.05,1.19.57.68.6.57c.25.19.56.38.64.4h0c.09,0,.5.01.89.03l-.31.22.36-.25.34-.89.48-1.15.67-.87.64-.45.56-.03s.31.11.36-.03.14-.34.14-.53-.14-.39-.14-.39l.06-.31,1.03-.06.2-1.06-.14-.53.5-.34.17-.42-.03-.25-.39-.56.56-.61,1.48-.78s.59,0,.75-.03c.17-.03.92-.08.92-.08l.22-.28s.22-.39.42-.39.48-.25.48-.25c0,0,.81.06.95.03.14-.03.42-.31.42-.31,0,0,.28-.22.34-.34s.39-.5.39-.5l.56.08.14.34.78.14.31.5s.7.5.87.39.45-.22.45-.22c0,0,.28-.59.28-.7s-.06-1.17-.06-1.17l.25-.56.45-.25-.06-.67-.87-.95-.61-.36-.87.03-.28-.22h-.89l-.62-.56-.56-.56-.28-.28-.59-.2-.17-.25h-.39l-.36-.28.11-.98v-.78l-.2-.92.34-.56.73-.75.61-.87-.03-1.82.42-.56.59-.42.48-.2.14-.07v-.99l-.79-.65Z"/>
    <path class="st9" d="M617.6,305.16l-.63-.6-.67-.79-.06-1.4h-.02s-.94,0-.94,0l-.47.18-.84-.2-.55.05-.5.47-.81-.52-.1-1.41.31-.03.15-.42-.28-.25-.27-.33-.38-.61-.36-.45-.03-.73.3-.57.51-.77.36-.36.23-.62.75.03.46-.1.1-.36-.09-.38-.48-.49-.27-.59-.36-.39-.02-.48-.46-.06-.45.25-.54.39-.87-.03-.43-.3-.16.02-.99.76-1.37-.03-.53.23-.65-.03-.29.36-.82.08-.38.29-1.08-.1-.52-.48-.1-.1.05.79.5.42h.42v.59l.92.61.03.34-.11.42-.59.14-.5.56-.06.42.42.31.45.39-.06.56-.31.31h-.75l-.34.25.03.75-.36.2v.62l1.01.03.48.61.48.84.74.66,1.3.55,1.01.5.5.22.14.39-.36.39v.67l.42.28-.08.95.98.78,1.12.31,1.26.48,1.2.08.67.34.67.39.39.11,1.15-.17.25-.7,1.09-.7.87-.39.42-.5-.2-.81.14-.78.42-.36.15-.48c-.24,0-.44-.01-.49-.01-.19,0-.58-.26-.87-.48Z"/>
    <path class="st9" d="M604.6,294.6l.34-.27.78-.08.31-.38.75.03.53-.22,1.32.03.97-.75.4-.04.46.32.64.02.45-.33.57-.32.61.08.33-.58-.03-3.08.35-.33-.47-.72.12-.75-.02-.84.37-.15.05-.59.52-.32s.09-.02.13-.03l.04-.84-.23-.44-.65-.37-.21-.54-.72-.9-.48-.34-.41.03-.29.33-.61-.06-.34-.42-.65-.46-.53-.6-.93-.46-.13.27-.05.51.27.38.67.03.32.28.07.37v1.04s-.23.63-.23.63l.4.95.09,1.5-.74.5-.04.44-.03,1.4-.36.39.11.5.28.25-.36.48-.2.56-.36.56-.39.42-.28.45-.75.56-.7.59-.73.25-.64.11-.2.22-.81-.08-.02.24.52.5.81.08Z"/>
    <polygon class="st3" points="631.64 280.09 631.49 280.17 631.64 280.09 631.64 279.66 631.64 279.65 631.64 280.09"/>
    <polygon class="st9" points="588.78 284.04 588.65 283.22 588.81 280.45 589.16 280.09 589.73 279.23 589.87 278.6 590.45 277.76 590.88 277.62 591.03 276.25 590.1 276.42 589.32 276.92 588.75 276.83 587.92 277.55 587.36 277.55 586.34 275.95 585.37 275.03 584.3 274.97 584.38 274.15 583.63 274.09 582.2 275.04 581.7 275.9 581.33 275.9 579.97 275.24 579.19 274.7 578.05 274.56 578.05 274.39 577.56 274.42 576.83 275.96 576.15 276.26 576.09 276.92 575.24 277.41 574.06 277.36 573.87 278.45 573.25 278.78 572.68 278.77 572.29 279.33 572.36 280.25 572.88 280.76 572.49 281.59 572.57 283.16 573.08 284 573.69 284.47 573.49 286.57 573.97 286.78 573.76 288.55 574.6 289.24 574.83 289.99 574.77 291.44 574.81 291.44 574.81 291.45 574.64 291.44 576.38 291.48 576.89 291.29 577.25 291.05 578.27 290.65 578.87 290.65 579.14 290.89 579.97 291.01 582.23 291.09 582.27 291.4 583.26 291.36 583.49 290.5 583.65 290.22 584.17 289.55 584.96 289.23 585.23 288.83 585.43 288.68 586.54 288.64 587.01 288.36 587.37 287.85 587.49 287.17 588.16 286.9 588.63 286.7 588.95 286.54 588.99 286.03 589.54 285.91 589.75 285.89 589.82 285.29 588.78 284.04"/>
    <path class="st3" d="M552.89,296.16l-1.06-.64.03-.87-.46-.84-.84-.63-.1-.54.03-1.65-.06-.14-.18.31-.34.52-.06,1.45-.22.76-1.19.38-.63-.05-.11.25-1.44-.06-.88-.66-.02-.06q-.23-.84-.13-.92l.32-.23v-.3l-.2-.18-1.1-.06.06-1.1-.22-.12-.23-1.05.21.08s.07-.06.1-.08l.17-.77.16-.1.04-.35-.24-.35-.03-.98-.94-.03-.67.03-.06.2-.45.7-.56,1.03-.53.78-1.15.31-.2.92-1.09,1.17s-.64.28-1.01.34-.08.28-.08.28h-.61s-1.98-.08-2.12-.08-.67-.5-.67-.5l-.03-.25s-1.09.08-1.17.22c-.08.14-.61.22-.61.22l-.5-.08.39.36-.31.42-.67.17s-.56,0-.75.03,0,.64,0,.64l-.39.48.34.59.45.39-.06,1.54-.67.56s-.06.5-.06.61.08.73.08.73l.42.5.14.39-.25.5-.2.53.22.67.42-.03.25-.56.42-.42v-.45l.84-.11.25-.45h.45l.53.22.73.36.73.56.39.59.59.22.73.14.5-.08.95-.48.28-.48.28-.64s.39.42.5.53c.11.11.73.11.73.11l.53-.64.59-.06,1.2-.17,1.54-.14.92-.59s.45.11.87.17c.42.06.5.42.59.53.08.11,1.17.78,1.17.78,0,0,1.34.84,1.51.98.17.14.7.53.7.53h.87c.36,0,.42.28.42.28,0,0,.39.17.56.34.17.17.14.56.14.56l.64-.03v-.56l-.28-.36.11-1.12.2-.2.5-.17.31-1.15.08-1.26.11-.95.48-.53-.17-.36.15.32-.89-.62Z"/>
    <polygon class="st3" points="589.94 285.86 589.94 285.83 589.94 285.82 589.94 285.86"/>
    <path class="st9" d="M574.46,290.04l-.17-.59-.91-.74.2-1.7-.47-.2.2-2.17-.52-.42-.58-.95-.08-1.75.32-.68-.43-.43-.06-.74c-.09,0-.39.04-.57.05v.07s-.55-.18-.55-.18l-.23-.1-1.63-.03h-1.74l-.81-.11-1.56-.11-.36.16-.47.74-1.02,1.17-.9.65-.47.12-.04.11.64.69.07,1.08-.85.07-1.23.19-.65.25-.81.4-1.19-.04-.66-.22-.37.32h-2.62s-.65.88-.65.88l-.79.39-.24,2.13-.64,1.07-.89.54-.09.47.22.5-.03,1.7.07.36.8.63.53.97-.03.75.89.53.54.38-.02-.86s.87-.2.98-.28.42.03.5-.48c.08-.5.14-.67.14-.67l.36-.53.42-.17,1.84-.03.03.64.59,1.01s.64.84.81.92.53.42,1.06.42h1.23l1.29-.73.39-.64.31-.45,1.29-.06,1.17-.28.73-.08.11.53.61-.67.42-.42.5-.67.75-.25.61.2s.36.34.48.2.5-.56.5-.56c0,0-.06-.36.25-.36s.53.11.53.11l.5.42.59.39.64-.17s.36-.25.45-.36c.06-.08.45-.46.7-.71,0,0,0,0-.01.01l.06-1.62Z"/>
    <path class="st9" d="M572.09,271.9l.02.13.37.26.06,1.25-.32.41-.13.68-.14.54-.06.78-.64.24-.49.15-.4.14-.05,1.05v.49s-.58.19-.58.19l-.25.3-.13.06-.02.53h.31l1.05.04.25.11.3.1c.12-.02.3-.04.6-.06l.03-.04.36-.56v.05s.25-.35.25-.35h.67s.38-.2.38-.2l.21-1.23,1.39.06.6-.35.06-.68.76-.33.77-1.62,1.09-.06v.23s.9.11.9.11l.84.58,1.25.61h.08l.44-.76,1.6-1.06,1.26.1-.08.81.83.05,1.11,1.06.92,1.45h.22l.85-.74.6.09.76-.46,1.07-.2v-.02s.88-.04.88-.04l.25-.23.34-.12.25-.92.22-.28-.4-.48-.32-.67-.23-.43-.41-.7-.08-1.15-.18-.32-.42-.87-.06-.87.32-.04h0l-.62.07-1.09.48-1.12.64-.89.45-1.34.03-2.01.14-.64.06-.48.28-3.27-.08-1.87-.06-.61-.2-1.17-.06-.56.14-.78.25-.59.61-.22.36-1.03-.08-.25-.28-.29.14-.3.28Z"/>
    <path class="st3" d="M544.91,288.39l-.07.66-.18.12-.16.74-.04.04c-.06.05-.11.09-.14.13l.1.46.28.16-.05.97.86.05.42.38v.65l-.37.26c.04.16.11.42.15.54l.69.52,1.08.05.11-.26.82.06.94-.3.16-.56.06-1.48.39-.6.34-.58.12-.66.95-.58.57-.96.23-2.22.89-.44.7-.96h2.67s.43-.36.43-.36l.83.28,1.02.03.74-.37.72-.27,1.26-.2.5-.04-.04-.6-.7-.76.18-.5.62-.15.79-.58.96-1.1.52-.81.54-.24,1.67.11.8.11h1.73s.03-.78.03-.78l.26-.11.26-.31.43-.14v-.23l.06-1.3.64-.23.49-.15.41-.15.05-.58.15-.56.15-.76.29-.37-.05-.93-.35-.24-.09-.48.49-.45.1.16-.25-.39s-.53.11-.56-.03c-.03-.14-.08-.56-.08-.56l.42-.39.03-.25-.14-.06-.25.06-.45.17-.87-.08-.67-.48-.78-.45s-.81.36-.92.45c-.11.08-.53.48-.75.59s-1.31.59-1.48.61c-.17.03-1.2.22-1.4.22s-.75.08-.87.14c-.11.06-1.26.73-1.26.73l-1.09.31-.36.42.11.59.64.59-.03.59s-.34.48-.53.62-1.12.48-1.12.48l-1.31.7-1.34.98-.73.87-1.12,1.37-.95.28-1.31.81-.89.92-.92.42-.42,1.01-1.2.75-.42.59s-.39.81-.5.84c-.11.03-.64.22-.64.22l-.84,1.15-.56.36-.78.22h-.28s-.59.34-.59.34h-.18l.03.86.26.38Z"/>
    <path class="st3" d="M574.57,291.49s-.01.01-.02.02c0,0,.01-.01.02-.02Z"/>
    <rect class="st3" x="589.94" y="285.82" width="0" height="0" transform="translate(233.15 835.76) rotate(-82.87)"/>
    <path class="st3" d="M523.36,319.25l.45-.93.66-.29.44-.63,1.08-.16.33-.44.48-.48.49.25.23.23,1.01.15.84.3.09-.02.25-1.37-.3-1.45-.06-1.77.25-.71h.53l.43-.71.03-.42.84-.71.68-.36.69-.09,1.5.17h.4s.4-.26.4-.26l.15-.71-.13-1.08.19.15-.23-.18-1.15-.16-.55-.63-.71-.87-.47-.91-.12-.75-.24-.32-.12-.28-.12-.44.36-.04v-.75l-.04-.63v-.12l.36-.16v-.28l-.43-.2-.4.08-.16.47.04.55-.24.24h-.83l-.59-.44-.2-.4-.63-.28-.4.47h-.91l.04-.36s-.91-.2-.99,0c-.08.2-.24.51-.24.51l-.2.63-.87.12h-1.3l-1.03.79-.16.4-.2.91-.04.75-.47.47-.4.04-.08.43-.71.12-.83.04v.2l.16.4.67-.04.67-.4.47-.08-.08.91-.71.24-.91.2-.83-.04-.47-.55-.43-.55-.67.47-.63.51-.67.28s-.12.59.08.63c.2.04.67.36.67.36l.24.16-.36.28-.91.16-.32.2.11.23-.08-.17h.12s.91.25.91.25h0c.13.02.34.05.69.1l.95-.36,1.15.12.54.35.47-.04v.46l.42.44.49.15h.53s-.11-.57-.11-.57l.87-.07,1.36.03.1,1.69-.63.75-1.18,1.2-.75.34-.45.84-.34.16-.18.87.31.36.59.67.16.51-.08.79v.52l.82-.13.54-.32Z"/>
    <path class="st3" d="M521.27,315.55l.45-.84.84-.37,1.09-1.12.53-.63-.07-1.21-1.01-.02-.45.04.04.21.27.4-1.24-.02-.61-.18-.59-.62v-.21l-.2.02-.57-.37-.97-.1-.95.36h-.05s-.73-.12-.75-.12l-.87-.24-.93.05-.06.43-.53-.22-.39-.22-.5-.17v-.5l.22-.42-.48-.11-.45-.45-.67.03-.22.48-.31.34.03.31v.08l.45.39-.06.42-.73-.34-.53-.03-.17.48-.39.36-.2.22,1.06-.25h.45l.2.34.28.22-.42.17-.03.08.27.52-.14.42-.26.29-.53.15-.1.58.77.77.3.91.38.3.48.33,1.19.03-.06,1.28.24.38.57.57.61.53h.63l.03.52.39.24.85.08.44.11.2.11.47-.07.12-.16-.03-.53-.42-.62-.53-.95-.31-.36v-.45l.39-.33.39-.03.5-.45s.08-.22.22-.28c.14-.06.59-.08.59-.08l.2.17.36.22.34.28h.36l.19-.94.39-.18Z"/>
    <path class="st3" d="M522.01,335.56v.42l.67.16.97-.02.2-.31h.57l.34-.42h.87s.43.14.43.14l.27.43.81.08.24.4c.6-.07.9-.1,1.06-.1v-.02s1.69-.11,1.69-.11l.12-.19,1.58.03.45-.5h1.17s.34-.26.34-.26v-.42s-.38-.5-.38-.5l-.15-.24-.31-.34.04-.51.55-.58.47-.55.03-.12-.19-.25-.15-.33-.62-.55-.39-.64-.25-.59-.15-1.25.49-.2.28-.48.89-.3.29-1.21.53-.59.32-.16v-.57s.89-.28.89-.28l.25-.69v-.82l.43-.4.94.09.07-.07h.02s-.44-.39-.44-.39l-.4-.1-.14-.6-.24-.03-.13-1.32s-.19-.73-.19-.73l-.09-.39-.27-.14-.21-.68-.44-.5-.42-.73-.22-.34-.58-.31-.26-.23-.91-.03h-.66l-.12.47.15.33.37.35.34.58-.43.62c-.03.12-.09.29-.17.57l-.04.13h-1.18l-.75-.6-.48-.61-.25-.48-.18.05-.91-.33-1.1-.16-.29-.3-.18-.09-.28.28-.41.54-1.07.16-.41.59-.63.27-.44.91-.73.41-.59.1.02-.28-.06.78.34.45,1.23.7.39.28.5.5.34.42.08.89.22.45-.5.89-.31.36-.81.42-.95.61-.45.59-.48.28-.11.5.22.17.28.03.61-.73.73-.42.81-.17h1.15l.56-.03h.25l-.03.31-.89.31-.73.87-.2.81.14.67-.2.45-.81.98-.67.48-.08,1.48-.36.5-.64.73-.45.28-.22.45-.28.22.03.44v-.18s1.01.03,1.01.03Z"/>
    <polygon class="st3" points="518.34 320.45 518.35 320.45 518.34 320.45 518.34 320.45"/>
    <path class="st3" d="M546.61,324.53l-.15-.74.05-.65-1.22-.02-.28.24-.39.71-1.91.03-.75.05-.44.16-.3-.32c-.12,0-.34,0-.34,0h-.16s-.09-.69-.09-.69l-.38-.28-.61.06-.17.4h-.85l-.63-.49-.08.05-.14.17-.97-.09-.19.18v.75s-.34.9-.34.9l-.8.25v.53s-.5.24-.5.24l-.39.45-.32,1.32-.95.32-.27.46-.34.14.11.95.21.49.36.6.64.57.16.34.26.33-.08.38-.53.62-.46.49-.02.22.23.25.16.25.43.58.02.73-.6.42h-1.13s-.46.52-.46.52l-1.54-.02-.11.18-1.88.12s-.76.09-1.05.12l-.18.41.08.27,1,.2.09.58.47.31.03.61.21.22.74.1.33.48.25.42.02,1.83.76.13,1.07.43.53.29.14.5-.2.42.16.51v.12s.19.11.19.11l.48.12.52.08.08.34h1.21s.21.49.21.49l.23,1.07-.02.66-.66.66v.55s.1.05.1.05l.7.17.31.45.08.56.64.22.48.03h.81l.11-.64.25-.31.11-1.4.45-.36.06-.87.56-.62.5-.48v-1.93s.45-.22.45-.34-.28-.92-.28-.92l-.22-.48-.08-.92v-.98l.31-.39.11-.95.34-.84s-.17-.36-.06-.48.36-.22.36-.48v-.81l.45-.95.2-.64.31-.59.42-.59-.06-.73.34-.75.31-.42-.08-.56.81-.11.03-.25-.28-.28-.22-.75s.59-.08.7-.11c.11-.03.39-.17.39-.17l-.11-.95.14-.67.5-.14.11-.45.48-.36.2-.31-.08-.78.59-.03.34-.28.42-.28-.03-.2c-.07,0-.13,0-.18,0-.28,0-.28-.04-.3-.13Z"/>
    <path class="st3" d="M548.9,320.5l-.5-.31.06-.7-.39-.5.36-.34.28-.2.92-.7-.48.17-.95.17-.5-.14-.25-.42.06-.59h-.42l-.61-.06v-.48l.39-.36.31-.53.28-.5.17-.53-.39.03-.67.17-.17.14-.78.28-.48-.14-.2-.48h-3.05l-.53-.28-.45-.53-.03-.87,1.4-.03.08-.31.67-.39,1.06-.5.73-.31-.03-2.52-.67-1.26-.5-.78-.7-.53-.64-.08-.78.31-.78.56-.48.59s-.39.42-.59.73-.31.22-.31.22l-1.4.06-.5-.31-.78-.03-.45-.31-.7-.02.11.95-.19.91-.61.41h-.53l-1.48-.17-.61.08-.57.31-.68.58-.03.36-.58.96h-.48l-.14.41.05,1.67.31,1.49-.27,1.48.28.53.44.57.6.48h.78c.03-.1.07-.23.11-.33l-.05-.02.42-.62-.21-.35-.39-.37-.22-.48.22-.87h.95l1.05.03.34.31.61.32.28.43.41.72.47.56.17.57.29.14.13.56s.19.75.19.75l.1,1.06.21.03.14.63.27.07.68.59.63.49h.49l.16-.38.96-.1.62.45.07.53c.34,0,.35,0,.4.07l.18.2.28-.09.78-.06,1.71-.02.35-.6.4-.35,1.75.03-.08.98.11.54c.1,0,.25-.02.41-.03l-.12.19s-.17.01-.3.02c.13,0,.3-.02.3-.02l.2-.31.28-.59.53-.17.53-.22.42-.25.17-.56-.03-.48.31-.45.11-.5.67-.11.36-.36-.61.03h-1.26Z"/>
    <path class="st3" d="M517.68,320.53l-.34-.08-.91-.08-.62-.38-.02-.37h-.43l-.72-.63-.62-.63-.31-.5.05-1.02-.93-.02-.58-.39-.47-.38-.31-.93-.85-.85.18-.99.65-.18.16-.18.05-.17-.05-.1-.33-.12-.67.03h-1.12l-.14-.22v-.22l-.36.14-.59.08h-.64l-.45-.31-.34-.31-.42.11-.08.31s-.34.14-.39.28-.28.56-.28.56l-.61.56-.25.62-.2.53-.53.5-.06.39-.39.25.03.39h1.51l.28-.67.56-.36.17-.56.11-.78.48-.53.25-.39.56.08v.87l-.2.75s-.25-.08-.28.2c-.03.28.03.67.03.67l.67.45.61.11.45.03.11.53.08.61.42.06.25-.11.2-.56.61.64.11.56v.31l.78.08.7.17.28.17.75.36.56.28s-.08.61-.08.73v1.23l.17.31.84.22v.2l-.06.34.28.48.08.17-.28.03-.39-.45-.45-.14-.14-.08h-.59l-.25-.25h-.39l-.36.28-.36.2v.22l-.25-.25-.14-.42s-.45-.2-.45-.34.11-.5.11-.5l.61-.28.06-.87-.53-.48-.48-.34-.53-.75-.36-.14s.14-.39-.08-.45c-.22-.06-.56-.08-.56-.08l-.39.25-.36.03-.28.11-.11.14v.56l.28.17.14.75.14.84.59,1.03.78.87.45.56-.03.03h.7l-.14.61.34.45.34.73.56.08.2.06-.25.34-.48.06-.42.25.08.53-.25.36-.2.45-.31.48-.06.11.5.06.78-.5.28-.34.25-.5.59-.25.42-.73.11-.25.84-.53.81-.39.56-.34.61-.17.78-.11.92.22.11.34-.08.87-.48.25-.34.14-.03,1.03.61.5.67.34.62-.17.75-.53.75-.42.39-.45.42-.73.11-1.34-.5-.81-.56-.48-.56-.31-1.01.03-.36.14-.31.28-.34.14h-.73l-.34-.25.06-.31s-.06-.25.14-.34c.2-.08.81-.28.81-.28l.28-.36.13-.42-.32.05-.28-.16Z"/>
    <path class="st3" d="M534.8,348.02l.67-.66.02-.47-.21-.99-.1-.24h-1.26s-.09-.38-.09-.38l-.3-.05-.57-.15-.35-.22-.03-.28-.19-.59.2-.42-.06-.23-.38-.21-1.04-.42-1-.16-.02-2.04-.19-.33-.23-.33-.71-.1-.39-.41-.03-.56-.45-.3-.07-.49-.96-.19-.19-.61.24-.54-.16-.27-.81-.08-.29-.46-.27-.09h-.61l-.34.42h-.55l-.19.3-1.21.03-1-.23v-.36l-.89-.03.08-.09-.48.5-.2.25-.45-.11-.17-.34-.84.03-.11-.03-.53-.06-.61.22-.11.31.39.36.31.06v.28l.28.59-.36.17-.2.25v.59l.5.45.59.34.03.73-.36.39-.22.59-.25.25-.25.17s.14.56.14.73.03.59.03.59l.61.17.59.45.67.36.48.34s.17.53.2.64c.03.11.06.73.06.73l.06,1.26-.17.95-.39.48s-.31.14-.31.28v.39l-.39.2-.25.28-.87.11-.45-.2-.25-.28-.45-.17-.53.25.42.39s.36.59.59.64c.22.06.45.25.45.25l.11.89v.81l.5.28,1.15.03.36.11.67.28s.73-.08,1.15-.08h.92l.39.14.25.31-.11.48.14.2h1.31c.14,0,.64-.2.64-.2l.48-.14.03-.75.36-.45-.14-.25s-.08-.17-.25-.22c-.17-.06-.56-.39-.56-.39l-.45-.17-.36-.2s.06-.45.06-.61-.36-.5-.36-.5l.14-.5-.34-.25v-1.57l.31-.48.17-.36.14-.53.08-.59.56-.42.31-.5-.28-.56.42-.5.48-.2,1.45.14.64.25.64.45v1.03l-.53.34-.22.59-.64.39-.34.14-.28-.22s-.03-.28,0-.42c.03-.14.06-.64.06-.64l-.67-.14-.89.14-.14.7.36.56s.56.31.73.22.2,0,.2,0l.25.25.03.48.2.78.5.62.81.62.25.61.08.62s.11.59.03.73-.45.5-.45.5l-.42.64-.22.5v.64l-.39.73s-.08.25-.25.25-.5.11-.5.11l-.25.36.03.56v.59l.25.08h.67l.81-.39.34-.5s.25-.17.64-.14c.39.03.89,0,.89,0l.42-.45.7-.06s.28,0,.34-.22.17-.75.17-.75l.39-.56.25-.81.81-.22.42-.2.28-.14.06-1.31s0-.22-.22-.22h-.73l-.14-.56-.06-.61.17-.59.67-.28.73-.2.77-.06h-.17s0-.6,0-.6Z"/>
    <polygon class="st3" points="522 319.74 522.35 319.75 522 319.74 522 319.74"/>
    <polygon class="st3" points="520.86 316.67 520.88 316.6 520.86 316.67 520.86 316.67"/>
    <polygon class="st3" points="518.35 320.45 518.35 320.45 518.32 320.54 518.35 320.45"/>
  </g>
  <g>
    <rect class="st8" x="30.45" y="620.82" width="164.96" height="53.9" rx="26.95" ry="26.95"/>
    <text class="st0" transform="translate(99.05 662.13)"><tspan x="0" y="0">廣島</tspan></text>
    <g>
      <g>
        <g>
          <polygon class="st2" points="80.15 660.24 72.36 646.17 77.3 641.23 82.39 658 80.15 660.24"/>
          <path class="st2" d="M80.01,661.18l-8.36-15.11,5.92-5.92,5.47,18.01-3.03,3.02ZM73.07,646.27l7.21,13.03,1.47-1.47-4.71-15.53-3.96,3.96Z"/>
        </g>
        <g>
          <polygon class="st2" points="57.88 637.97 71.95 645.76 76.89 640.82 60.12 635.73 57.88 637.97"/>
          <path class="st2" d="M72.05,646.47l-15.11-8.36,3.02-3.03,18.01,5.47-5.92,5.92ZM58.82,637.84l13.03,7.21,3.96-3.96-15.53-4.71-1.47,1.47Z"/>
        </g>
      </g>
      <g>
        <path class="st2" d="M66.9,654.07l16.04-16.04c.78-.79,1.46-2.73.67-3.52-.79-.79-2.73-.11-3.52.67l-16.04,16.04-5-1.52-1.94,1.94,5.78,3.2.37.37,3.2,5.78,1.94-1.94-1.52-5Z"/>
        <path class="st2" d="M66.34,661.94l-3.53-6.38-.26-.26-6.38-3.53,2.72-2.72,5,1.52,15.8-15.79c.68-.68,1.93-1.19,2.91-1.19.59,0,1.08.18,1.42.52,1.13,1.13.21,3.44-.67,4.33l-15.79,15.79,1.52,5-2.72,2.72ZM58.06,651.51l5.19,2.87.49.49,2.87,5.19,1.16-1.16-1.52-5,16.28-16.28c.65-.65,1.14-2.25.67-2.71-.15-.15-.42-.18-.61-.18-.74,0-1.68.44-2.1.86l-16.28,16.28-5-1.52-1.16,1.16Z"/>
      </g>
    </g>
  </g>
  <g>
    <rect class="st8" x="209.41" y="577" width="164.96" height="53.9" rx="26.95" ry="26.95"/>
    <text class="st0" transform="translate(278.01 618.31)"><tspan x="0" y="0">岡山</tspan></text>
    <g>
      <g>
        <g>
          <polygon class="st2" points="259.11 616.43 251.32 602.35 256.26 597.41 261.35 614.18 259.11 616.43"/>
          <path class="st2" d="M258.97,617.37l-8.36-15.11,5.92-5.92,5.47,18.01-3.03,3.02ZM252.03,602.45l7.21,13.03,1.47-1.47-4.71-15.53-3.96,3.96Z"/>
        </g>
        <g>
          <polygon class="st2" points="236.84 594.16 250.91 601.94 255.85 597 239.08 591.91 236.84 594.16"/>
          <path class="st2" d="M251.01,602.65l-15.11-8.36,3.02-3.03,18.01,5.47-5.92,5.92ZM237.78,594.02l13.03,7.21,3.96-3.96-15.53-4.71-1.47,1.47Z"/>
        </g>
      </g>
      <g>
        <path class="st2" d="M245.86,610.25l16.04-16.04c.78-.79,1.46-2.73.67-3.52-.79-.79-2.73-.11-3.52.67l-16.04,16.04-5-1.52-1.94,1.94,5.78,3.2.37.37,3.2,5.78,1.94-1.94-1.52-5Z"/>
        <path class="st2" d="M245.31,618.12l-3.53-6.38-.26-.26-6.38-3.53,2.72-2.72,5,1.52,15.8-15.79c.68-.68,1.93-1.19,2.91-1.19.59,0,1.08.18,1.42.52,1.13,1.13.21,3.44-.67,4.33l-15.79,15.79,1.52,5-2.72,2.72ZM237.02,607.69l5.19,2.87.49.49,2.87,5.19,1.16-1.16-1.52-5,16.28-16.28c.65-.65,1.14-2.25.67-2.71-.15-.15-.42-.18-.61-.18-.74,0-1.68.44-2.1.86l-16.28,16.28-5-1.52-1.16,1.16Z"/>
      </g>
    </g>
  </g>
  <g>
    <rect class="st8" x="403.66" y="565.35" width="164.96" height="53.9" rx="26.95" ry="26.95"/>
    <text class="st0" transform="translate(472.25 606.66)"><tspan x="0" y="0">神戶</tspan></text>
    <g>
      <g>
        <g>
          <polygon class="st2" points="453.35 604.77 445.57 590.7 450.51 585.76 455.6 602.53 453.35 604.77"/>
          <path class="st2" d="M453.22,605.72l-8.36-15.11,5.92-5.92,5.47,18.01-3.03,3.02ZM446.28,590.8l7.21,13.03,1.47-1.47-4.71-15.53-3.96,3.96Z"/>
        </g>
        <g>
          <polygon class="st2" points="431.08 582.51 445.16 590.29 450.1 585.35 433.33 580.26 431.08 582.51"/>
          <path class="st2" d="M445.26,591l-15.11-8.36,3.02-3.03,18.01,5.47-5.92,5.92ZM432.02,582.37l13.03,7.21,3.96-3.96-15.53-4.71-1.47,1.47Z"/>
        </g>
      </g>
      <g>
        <path class="st2" d="M440.1,598.6l16.04-16.04c.78-.79,1.46-2.73.67-3.52-.79-.79-2.73-.11-3.52.67l-16.04,16.04-5-1.52-1.94,1.94,5.78,3.2.37.37,3.2,5.78,1.94-1.94-1.52-5Z"/>
        <path class="st2" d="M439.55,606.47l-3.53-6.38-.26-.26-6.38-3.53,2.72-2.72,5,1.52,15.8-15.79c.68-.68,1.93-1.19,2.91-1.19.59,0,1.08.18,1.42.52,1.13,1.13.21,3.44-.67,4.33l-15.79,15.79,1.52,5-2.72,2.72ZM431.27,596.04l5.19,2.87.49.49,2.87,5.19,1.16-1.16-1.52-5,16.28-16.28c.65-.65,1.14-2.25.67-2.71-.15-.15-.42-.18-.61-.18-.74,0-1.68.44-2.1.86l-16.28,16.28-5-1.52-1.16,1.16Z"/>
      </g>
    </g>
  </g>
  <g>
    <rect class="st10" x="545.66" y="664.35" width="164.96" height="53.9" rx="26.95" ry="26.95"/>
    <text class="st0" transform="translate(614.25 705.66)"><tspan x="0" y="0">大阪</tspan></text>
    <g>
      <g>
        <g>
          <polygon class="st2" points="595.35 703.77 587.57 689.7 592.51 684.76 597.6 701.53 595.35 703.77"/>
          <path class="st2" d="M595.22,704.72l-8.36-15.11,5.92-5.92,5.47,18.01-3.03,3.02ZM588.28,689.8l7.21,13.03,1.47-1.47-4.71-15.53-3.96,3.96Z"/>
        </g>
        <g>
          <polygon class="st2" points="573.08 681.51 587.16 689.29 592.1 684.35 575.33 679.26 573.08 681.51"/>
          <path class="st2" d="M587.26,690l-15.11-8.36,3.02-3.03,18.01,5.47-5.92,5.92ZM574.02,681.37l13.03,7.21,3.96-3.96-15.53-4.71-1.47,1.47Z"/>
        </g>
      </g>
      <g>
        <path class="st2" d="M582.1,697.6l16.04-16.04c.78-.79,1.46-2.73.67-3.52-.79-.79-2.73-.11-3.52.67l-16.04,16.04-5-1.52-1.94,1.94,5.78,3.2.37.37,3.2,5.78,1.94-1.94-1.52-5Z"/>
        <path class="st2" d="M581.55,705.47l-3.53-6.38-.26-.26-6.38-3.53,2.72-2.72,5,1.52,15.8-15.79c.68-.68,1.93-1.19,2.91-1.19.59,0,1.08.18,1.42.52,1.13,1.13.21,3.44-.67,4.33l-15.79,15.79,1.52,5-2.72,2.72ZM573.27,695.04l5.19,2.87.49.49,2.87,5.19,1.16-1.16-1.52-5,16.28-16.28c.65-.65,1.14-2.25.67-2.71-.15-.15-.42-.18-.61-.18-.74,0-1.68.44-2.1.86l-16.28,16.28-5-1.52-1.16,1.16Z"/>
      </g>
    </g>
  </g>
  <g>
    <rect class="st8" x="291.78" y="678.04" width="164.96" height="53.9" rx="26.95" ry="26.95"/>
    <text class="st0" transform="translate(360.37 719.36)"><tspan x="0" y="0">高松</tspan></text>
    <g>
      <g>
        <g>
          <polygon class="st2" points="341.47 717.47 333.69 703.4 338.63 698.46 343.72 715.23 341.47 717.47"/>
          <path class="st2" d="M341.34,718.41l-8.36-15.11,5.92-5.92,5.47,18.01-3.03,3.02ZM334.4,703.5l7.21,13.03,1.47-1.47-4.71-15.53-3.96,3.96Z"/>
        </g>
        <g>
          <polygon class="st2" points="319.2 695.2 333.28 702.99 338.22 698.05 321.45 692.96 319.2 695.2"/>
          <path class="st2" d="M333.38,703.7l-15.11-8.36,3.02-3.03,18.01,5.47-5.92,5.92ZM320.14,695.07l13.03,7.21,3.96-3.96-15.53-4.71-1.47,1.47Z"/>
        </g>
      </g>
      <g>
        <path class="st2" d="M328.22,711.29l16.04-16.04c.78-.79,1.46-2.73.67-3.52-.79-.79-2.73-.11-3.52.67l-16.04,16.04-5-1.52-1.94,1.94,5.78,3.2.37.37,3.2,5.78,1.94-1.94-1.52-5Z"/>
        <path class="st2" d="M327.67,719.17l-3.53-6.38-.26-.26-6.38-3.53,2.72-2.72,5,1.52,15.8-15.79c.68-.68,1.93-1.19,2.91-1.19.59,0,1.08.18,1.42.52,1.13,1.13.21,3.44-.67,4.33l-15.79,15.79,1.52,5-2.72,2.72ZM319.39,708.74l5.19,2.87.49.49,2.87,5.19,1.16-1.16-1.52-5,16.28-16.28c.65-.65,1.14-2.25.67-2.71-.15-.15-.42-.18-.61-.18-.74,0-1.68.44-2.1.86l-16.28,16.28-5-1.52-1.16,1.16Z"/>
      </g>
    </g>
  </g>
  <g>
    <rect class="st8" x="28" y="739.29" width="164.96" height="53.9" rx="26.95" ry="26.95"/>
    <text class="st0" transform="translate(96.6 780.61)"><tspan x="0" y="0">松山</tspan></text>
    <g>
      <g>
        <g>
          <polygon class="st2" points="77.7 778.72 69.91 764.65 74.85 759.71 79.94 776.47 77.7 778.72"/>
          <path class="st2" d="M77.56,779.66l-8.36-15.11,5.92-5.92,5.47,18.01-3.03,3.02ZM70.62,764.75l7.21,13.03,1.47-1.47-4.71-15.53-3.96,3.96Z"/>
        </g>
        <g>
          <polygon class="st2" points="55.43 756.45 69.5 764.24 74.44 759.29 57.67 754.2 55.43 756.45"/>
          <path class="st2" d="M69.6,764.94l-15.11-8.36,3.02-3.03,18.01,5.47-5.92,5.92ZM56.37,756.32l13.03,7.21,3.96-3.96-15.53-4.71-1.47,1.47Z"/>
        </g>
      </g>
      <g>
        <path class="st2" d="M64.45,772.54l16.04-16.04c.78-.79,1.46-2.73.67-3.52-.79-.79-2.73-.11-3.52.67l-16.04,16.04-5-1.52-1.94,1.94,5.78,3.2.37.37,3.2,5.78,1.94-1.94-1.52-5Z"/>
        <path class="st2" d="M63.89,780.42l-3.53-6.38-.26-.26-6.38-3.53,2.72-2.72,5,1.52,15.8-15.79c.68-.68,1.93-1.19,2.91-1.19.59,0,1.08.18,1.42.52,1.13,1.13.21,3.44-.67,4.33l-15.79,15.79,1.52,5-2.72,2.72ZM55.61,769.99l5.19,2.87.49.49,2.87,5.19,1.16-1.16-1.52-5,16.28-16.28c.65-.65,1.14-2.25.67-2.71-.15-.15-.42-.18-.61-.18-.74,0-1.68.44-2.1.86l-16.28,16.28-5-1.52-1.16,1.16Z"/>
      </g>
    </g>
  </g>
  <g>
    <rect class="st8" x="160.3" y="838.92" width="164.96" height="53.9" rx="26.95" ry="26.95"/>
    <text class="st0" transform="translate(228.89 880.24)"><tspan x="0" y="0">高知</tspan></text>
    <g>
      <g>
        <g>
          <polygon class="st2" points="209.99 878.35 202.21 864.28 207.15 859.34 212.24 876.1 209.99 878.35"/>
          <path class="st2" d="M209.86,879.29l-8.36-15.11,5.92-5.92,5.47,18.01-3.03,3.02ZM202.92,864.38l7.21,13.03,1.47-1.47-4.71-15.53-3.96,3.96Z"/>
        </g>
        <g>
          <polygon class="st2" points="187.72 856.08 201.8 863.87 206.74 858.92 189.97 853.83 187.72 856.08"/>
          <path class="st2" d="M201.9,864.57l-15.11-8.36,3.02-3.03,18.01,5.47-5.92,5.92ZM188.67,855.95l13.03,7.21,3.96-3.96-15.53-4.71-1.47,1.47Z"/>
        </g>
      </g>
      <g>
        <path class="st2" d="M196.74,872.17l16.04-16.04c.78-.79,1.46-2.73.67-3.52-.79-.79-2.73-.11-3.52.67l-16.04,16.04-5-1.52-1.94,1.94,5.78,3.2.37.37,3.2,5.78,1.94-1.94-1.52-5Z"/>
        <path class="st2" d="M196.19,880.05l-3.53-6.38-.26-.26-6.38-3.53,2.72-2.72,5,1.52,15.8-15.79c.68-.68,1.93-1.19,2.91-1.19.59,0,1.08.18,1.42.52,1.13,1.13.21,3.44-.67,4.33l-15.79,15.79,1.52,5-2.72,2.72ZM187.91,869.62l5.19,2.87.49.49,2.87,5.19,1.16-1.16-1.52-5,16.28-16.28c.65-.65,1.14-2.25.67-2.71-.15-.15-.42-.18-.61-.18-.74,0-1.68.44-2.1.86l-16.28,16.28-5-1.52-1.16,1.16Z"/>
      </g>
    </g>
  </g>
  <path class="st7" d="M551,312L97.88,568.16s193.76-96.08,275.44-75.62,243.66-51.44,243.66-51.44c0,0,68.13-51.04,158.57-31.08l-161.55-114.03-63,16Z"/>
  <g>
    <rect class="st8" x="619.66" y="345.35" width="164.96" height="53.9" rx="26.95" ry="26.95"/>
    <text class="st0" transform="translate(688.25 386.66)"><tspan x="0" y="0">小松</tspan></text>
    <g>
      <g>
        <g>
          <polygon class="st2" points="669.35 384.77 661.57 370.7 666.51 365.76 671.6 382.53 669.35 384.77"/>
          <path class="st2" d="M669.22,385.72l-8.36-15.11,5.92-5.92,5.47,18.01-3.03,3.02ZM662.28,370.8l7.21,13.03,1.47-1.47-4.71-15.53-3.96,3.96Z"/>
        </g>
        <g>
          <polygon class="st2" points="647.08 362.51 661.16 370.29 666.1 365.35 649.33 360.26 647.08 362.51"/>
          <path class="st2" d="M661.26,371l-15.11-8.36,3.02-3.03,18.01,5.47-5.92,5.92ZM648.02,362.37l13.03,7.21,3.96-3.96-15.53-4.71-1.47,1.47Z"/>
        </g>
      </g>
      <g>
        <path class="st2" d="M656.1,378.6l16.04-16.04c.78-.79,1.46-2.73.67-3.52-.79-.79-2.73-.11-3.52.67l-16.04,16.04-5-1.52-1.94,1.94,5.78,3.2.37.37,3.2,5.78,1.94-1.94-1.52-5Z"/>
        <path class="st2" d="M655.55,386.47l-3.53-6.38-.26-.26-6.38-3.53,2.72-2.72,5,1.52,15.8-15.79c.68-.68,1.93-1.19,2.91-1.19.59,0,1.08.18,1.42.52,1.13,1.13.21,3.44-.67,4.33l-15.79,15.79,1.52,5-2.72,2.72ZM647.27,376.04l5.19,2.87.49.49,2.87,5.19,1.16-1.16-1.52-5,16.28-16.28c.65-.65,1.14-2.25.67-2.71-.15-.15-.42-.18-.61-.18-.74,0-1.68.44-2.1.86l-16.28,16.28-5-1.52-1.16,1.16Z"/>
      </g>
    </g>
  </g>
  <circle class="st9" cx="100" cy="304" r="16"/>
  <text class="st1" transform="translate(129.41 264.1)"><tspan x="0" y="0">大阪世界萬國博覽會</tspan></text>
  <circle class="st4" cx="100" cy="253" r="16"/>
</svg>