<?xml version="1.0" encoding="UTF-8"?>
<svg id="_圖層_1" data-name="圖層_1" xmlns="http://www.w3.org/2000/svg" xmlns:xlink="http://www.w3.org/1999/xlink" version="1.1" viewBox="0 0 775 961.5">
  <!-- Generator: Adobe Illustrator 29.2.1, SVG Export Plug-In . SVG Version: 2.1.0 Build 116)  -->
  <defs>
    <style>
      .st0 {
        font-size: 36.75px;
      }

      .st0, .st1 {
        font-family: NotoSansCJKtc-Regular-B5pc-H, 'Noto Sans CJK TC';
      }

      .st0, .st2 {
        fill: #fff;
      }

      .st3 {
        fill: #e6e6e6;
      }

      .st4 {
        font-family: NotoSansCJKtc-Black-B5pc-H, 'Noto Sans CJK TC';
        font-size: 49px;
        font-weight: 800;
      }

      .st1 {
        font-size: 30.87px;
      }

      .st5 {
        font-size: 38px;
      }

      .st5, .st6 {
        font-family: NotoSansCJKtc-Bold-B5pc-H, 'Noto Sans CJK TC';
        font-weight: 700;
      }

      .st7 {
        fill: #ffc5dd;
      }

      .st6 {
        font-size: 61.14px;
      }

      .st8 {
        fill: #136dbf;
      }

      .st9 {
        fill: #29abe2;
      }

      .st10 {
        fill: #e03b86;
      }

      .st11 {
        fill: #29b3bd;
      }

      .st12 {
        fill: #e6d385;
      }

      .st13 {
        fill: #e9fcff;
      }
    </style>
    <path id="path" d="M39.52,1524c0-318.4-258.12-576.52-576.52-576.52s-576.52,258.12-576.52,576.52"/>
    <path id="path1" d="M113,1524c0-358.99-291.01-650-650-650s-650,291.01-650,650"/>
  </defs>
  <rect class="st13" y="-.5" width="773" height="1048"/>
  <g>
    <path class="st9" d="M421.71,737.28l-11.77-1.04-1.09-11.22-.58-10.04-5.01-4.51-8.95-.31-4.61-4.23-4.48-12.49-2.47-6.03-7.46-4-4.8.48-4.11,4.43-12.01-.33-9.7-2.01,1.81-1.95c-.04-.44-.09-.99-.13-1.46l-2.38-1.39-10.92-.59h-10.69s-3.86-4.56-3.86-4.56l-5-3.89-16.84-1.03-8.06,4.45-4.39,5.68-23.93.23-4.31,4.08-19.52.31-13.59,6.65-5.29,8.02-10.9,19.32-7.74,4.01.33,15.71-5.84,9.64-10.56,6.31-6.33,2.8-18.01-.33-1.96,2.87-.89,4.95,3.46,2.33v3.68l1.42,2.83,5.73,4.14,2.41,8.83-8.77,6-8.38,2.79-2.63,6.38-1.59,12.7-10.06,6.29-9.1,3.9-8.79-3.6-.73.43,3.26,8.76.89,8.86,1.87,7.22.85,5.15,1.29,20.27.74,3.35,1.84.42-.62,4.93-1.23,4.01-8.94,4.62-2.77,4.01-3.08,6.47.62,8.02,5.55.31,4.62-7.09h5.24l4.93,4.01,5.86,5.55,6.78-1.23s6.47-1.54,7.71-2.47c1.23-.92,4.01-4.01,5.24-4.62,1.23-.62,7.4-2.47,7.4-2.47l5.24,2.77,9.86,10.17,5.55,1.85,2.47-8.63-4.93-4.32-5.86-4.01.31-10.17,6.78-4.01.62-25.28,6.78-6.17,9.56-.62,1.23-5.86,11.1-16.34,5.55-6.78,5.86-.31,7.4-11.41,2.47-5.86-.92-15.41-1.85-4.01,3.08-5.55,9.86-3.7,9.56-3.39s12.64-.31,12.64-2.77,2.16-10.17,2.16-10.17l8.02-1.23,7.71-4.32,10.48-3.08,8.32-1.85,5.24-3.08,23.43-.93,4.62,4.32,15.11-.31,1.85,2.16,8.94,1.23,1.23,6.17,4.62,4.93,11.41,5.24,4.62,6.78,1.23,8.32,8.02,3.39,9.25,11.1,4.62.62,2.16-8.32,3.39-9.25.62-6.17,4.01-9.25,6.47-9.86,8.47-14.06-7.37-2.95-5.98-2.98Z"/>
    <rect class="st12" x="461.6" y="597.8" width="1.28" height="0" transform="translate(-177.83 999.48) rotate(-84.4)"/>
    <path class="st9" d="M506.43,676.5s-1.23-2.47-1.85-4.32c-.62-1.85,1.85-4.01,1.85-4.01l2.77-4.93.62-3.7-2.16-5.86-5.24-6.17-5.24-3.7-6.78-3.39.31-20.04,3.7-6.47,4.01-6.78v-3.39l-4.62-.92-4.93-4.62s-4.32-3.08-6.78-5.24c-2.47-2.16-4.93-.62-4.93-.62l-4.01,4.62-8.77.25-1.51,10.94h-3.91l-11.97.31h-10.23l-18.39-1.16-2.25,3.38-6.88,1.72-1.57,9.11-15.47,1.98-11.97,8.51-9.26-1.64-6.47-4.01-4.1-1.77-8.59,1.66-7.54,4.4-8.02,1.17-6.3,6.55-7.19,4.58-5.58.51-1.07,10.27.34,15.62,5.01,3.95,2.79,3.3h8.93l12,.64,5.01,2.92.1,1.03c.07.77.13,1.39.17,1.92l4.4.93,9.83.24,3.91-4.21,7.53-.75,9.81,5.26,3.05,7.45,4.18,11.64,2.79,2.55,8.93.31,7.32,6.59.66,11.62.76,7.81,9.54.99,6.17,3.08,8.08,3.23-1.27,1.72,4.32-5.86,6.78-8.32,12.02-12.33,15.41-6.47,8.01-8.63,12.64-9.86,8.02-4.62,4.93-3.08,7.09-2.77-2.47-2.47-6.47-.62Z"/>
    <polygon class="st3" points="125.39 875.6 125.39 875.61 125.4 875.65 125.39 875.6"/>
    <path class="st9" d="M123.39,875.82l-.54-2.47-1.31-20.38-.79-4.78-1.89-7.34-.91-8.89-4.24-11.16,5.36-3.19,9.09,3.72,7.28-3.1,8.16-5.13,1.52-11.59,3.44-8.33,9.84-3.28,5.69-3.96-1.29-4.73-5.37-3.89-2.28-4.56v-2.49l-3.86-2.6,1.74-8.74,3.43-5.02,19.3.36,5.3-2.33,9.48-5.68,4.72-7.78-.36-17.04,8.9-4.61,10.38-18.4,5.96-9.05,15.83-7.54,18.41-.29,4.32-4.09,23.55-.23,4.07-5,9.45-5.22,16.63,1.02-.3-14.52,1.11-10.82-5.26-3.11-8.68-3.36-4,1.11-5.55,7.09-.62,5.24-19.73.31-4.62-4.01-23.74-.62-4.01,6.17-.93,3.7-16.34,1.23h-5.86l-.93,3.7-6.47-.93-4.01-3.7-.31-4.01-4.01-8.32-1.85-8.63-5.86-5.86-7.09-5.55-1.23-3.7h-9.25l-.92,12.33-6.47,1.54-10.17.62-4.32,4.62-7.09.93-4.01,3.08-1.23,6.17.93,13.26-3.39,2.47-4.01,3.08-4.32,1.23.62,34.22-8.94,5.55-12.33,7.71-8.63,5.24-5.24.31-7.09,4.93-6.17,5.24-1.23,5.86-6.78,4.62-6.17,4.62-5.86-.31-7.09,6.17-9.25,3.7-10.79,4.01-8.63,4.93-5.86,2.77-8.02,5.55-1.54,1.85,6.47,1.54h8.32l8.02-4.62,8.94-6.17,8.32-4.93,11.1-5.24,8.02,2.47,3.7,2.16-3.7,5.55v5.24l3.7,4.32-.92,11.1,1.85,2.47h14.18l3.7,1.85-4.01,7.09,3.7,3.7,3.08.31-.62,5.86-6.47,2.47-6.17,4.62-3.39.31,2.16,9.25-.31,1.85,3.7,2.16-1.23,4.32,4.01,1.54-.62,5.24-6.47,3.39-5.55,2.77-1.23,4.01,7.4-1.23,5.24,1.54,2.77,4.01,2.77,2.47-.31,6.17-5.24,4.62s-4.93-2.16-4.32,0c.62,2.16,6.78,8.02,6.78,8.02l4.62,1.23,4.93-1.23.62-5.24,7.71,1.23v3.08l7.4.92h10.17l1.69-.14Z"/>
    <polygon class="st9" points="307.28 614.54 306.67 624.1 306.05 628.41 302.66 629.95 302.48 633.19 309.69 635.99 315.72 639.54 321.41 639.02 327.57 635.1 334.27 628.03 343.27 626.72 350.67 622.36 360.84 620.39 366.35 622.8 372.73 626.73 379.22 627.76 390.69 619.62 404.2 617.9 405.71 609.14 413.62 607.16 416.3 603.14 436.88 604.45 446.93 604.44 459.35 604.13 460.36 596.82 454.33 595.73 451.25 590.8 445.7 588.95 440.46 585.56 434.29 584.94 430.59 581.55 427.51 581.86 424.74 569.53 410.86 569.53 408.09 569.53 407.78 563.67 401.92 562.13 394.83 563.36 392.06 567.06 371.4 565.52 371.4 563.67 357.84 562.75 356.3 567.68 349.82 570.46 342.73 574.15 337.8 576.62 335.03 581.25 328.86 585.56 324.24 589.26 321.15 589.26 318.69 592.03 317.15 593.27 308.21 593.58 303.89 593.27 305.12 598.51 308.52 606.21 308.52 611.46 307.28 614.54"/>
    <path class="st9" d="M564.11,519.26l-8.72,4.36-13.52,14.39-9.16,8.28s-5.67,8.28-7.41,10.03c-1.74,1.74-5.67,13.95-5.67,13.95l-10.46,4.8-3.05,5.23,3.49,6.54,3.49,3.49v4.36l6.1,4.8h7.85l5.23-2.62,5.23-6.1,6.1-3.49h6.54l6.54-2.62-.44-7.41-4.36-1.74-1.31-6.54-.87-12.21,3.05-8.28,5.23-7.41,5.67-6.98,3.05-6.1,3.05-8.72-3.05-5.23-2.62,5.23Z"/>
    <polygon class="st7" points="586.96 579.14 586.89 579.08 586.96 579.14 586.96 579.14"/>
    <polygon class="st7" points="647.93 493.08 647.93 493.08 647.96 493.05 647.93 493.08"/>
    <path class="st7" d="M699.28,484.09l5.72-3.57c.55-.12,1-.22,1.41-.3l.45-9.24-2.53-4.81-7.14-4.11-2.3-5.99-7.94-9.96-5.25-3.76-4.55.3-3.21,3.68-6.71-.66-3.7-4.67-7.2-5.03-5.82-6.67-10.3-5.02-1.44,3.01-.52,5.67,3,4.14,7.44.3,3.53,3.09.74,4.08.03,11.52-2.61,6.97,4.46,10.42.99,16.55-8.14,5.57.05-.59-.46,5.48-.31,15.41-4.01,4.32,1.23,5.55,3.08,2.77-4.01,5.24-2.16,6.17-4.01,6.17-4.32,4.62-3.08,4.93-8.32,6.17-7.71,6.47-8.02,2.77-7.09,1.23-2.16,2.47-8.94-.92-.28,2.65,5.76,5.51,8.97.83,3.8-2.95,8.55-.88,3.41-4.2,8.26.36,5.8-2.47,14.56.3,10.68-8.25,4.4-.44,5.05,3.48,7.05.26,4.99-3.6,6.32-3.56,6.75.83,3.66-6.35-.31-33.93,3.88-3.66-5.19-7.93,1.27-8.29-.26-9.29,4.09-1.62.57-6.54Z"/>
    <polygon class="st3" points="773.22 517.21 774.25 520.34 774.25 512.08 773.23 512.93 773.22 517.21"/>
    <polygon class="st3" points="767.94 476.12 767.89 480.83 772.82 484.25 772.66 491.07 774.25 495.78 774.25 475.22 767.94 476.12"/>
    <path class="st7" d="M759.83,703.13c-1.51-.18-3.76-.42-4.93-.42-.07,0-.11,0-.13.02.01-.01.05-.02.13-.02,1.16,0,3.41.24,4.93.42Z"/>
    <polygon class="st3" points="774.25 450.95 774.25 466.33 775.36 463.26 774.25 450.95"/>
    <polygon class="st3" points="775.15 506.07 774.39 501.94 774.25 501.9 774.25 506.83 775.15 506.07"/>
    <path class="st9" d="M231.45,553.81c3.39,0,5.86,1.23,5.86,1.23l5.55,4.62,6.47,4.32,7.09-1.85s4.01-2.77,4.93-4.01c.61-.81,4.82-4.98,7.62-7.72l.64-17.84-1.93-6.52-10.01-8.17,2.19-18.79-5.16-2.18,2.17-23.91-5.76-4.65-6.36-10.44-.89-19.31,3.5-7.51-4.75-4.73-.65-8.21c-.99.09-4.29.39-6.28.57l-.11.82-6-2-2.59-1.14-17.97-.3h-19.19l-8.92-1.25-17.24-1.18-3.92,1.72-5.22,8.12-11.29,12.87-9.95,7.11-5.13,1.28-.45,1.23,7.05,7.64.8,11.93-9.37.78-13.52,2.11-7.21,2.7-8.89,4.46-13.11-.42-7.25-2.42-4.09,3.48-28.93-.04-7.12,9.78-8.66,4.31-2.63,23.5-7.04,11.8-9.83,5.97-1.04,5.16,2.47,5.49-.31,18.74.74,3.97,8.87,6.95,5.81,10.66-.29,8.3,9.77,5.86,5.99,4.17-.24-9.46s9.56-2.16,10.79-3.08c1.23-.93,4.62.31,5.55-5.24.92-5.55,1.54-7.4,1.54-7.4l4.01-5.86,4.62-1.85,20.35-.31.31,7.09,6.47,11.1s7.09,9.25,8.94,10.17c1.85.92,5.86,4.62,11.71,4.62h13.56l14.18-8.02,4.32-7.09,3.39-4.93,14.18-.62,12.95-3.08,8.02-.92,1.23,5.86,6.78-7.4,4.62-4.62,5.55-7.4,8.32-2.77,6.78,2.16s4.01,3.7,5.24,2.16c1.23-1.54,5.55-6.17,5.55-6.17,0,0-.62-4.01,2.77-4.01Z"/>
    <polygon class="st9" points="431.75 422.88 437.96 413.35 439.52 406.43 446 397.17 450.65 395.62 452.37 380.44 442.13 382.39 433.5 387.82 427.21 386.92 418.08 394.83 411.91 394.83 400.66 377.15 389.97 367.04 378.12 366.34 379.05 357.35 370.7 356.66 355.02 367.11 349.43 376.64 345.34 376.64 330.42 369.33 321.73 363.37 309.2 361.87 309.21 360 303.84 360.28 295.73 377.33 288.22 380.62 287.61 387.87 278.18 393.31 265.19 392.74 263.16 404.71 256.31 408.34 249.97 408.3 245.71 414.46 246.51 424.55 252.2 430.23 247.92 439.4 248.72 456.7 254.35 465.94 261.07 471.17 258.97 494.34 264.21 496.55 261.93 516.15 271.19 523.71 273.65 532.05 273.08 548.01 273.48 548.04 273.48 548.08 290.76 548.47 296.43 546.29 300.35 543.68 311.69 539.32 318.23 539.32 321.28 541.93 330.44 543.24 355.29 544.11 355.72 547.6 366.62 547.17 369.24 537.57 370.98 534.52 376.65 527.11 385.37 523.62 388.42 519.26 390.6 517.52 402.81 517.08 408.04 514.03 411.96 508.36 413.27 500.95 420.68 497.9 425.91 495.72 429.4 493.98 429.84 488.31 435.94 487 438.24 486.74 439.06 480.15 427.49 466.42 426.07 457.39 427.87 426.76 431.75 422.88"/>
    <polygon class="st9" points="273.48 548.08 273.48 548.08 272.15 548.05 273.48 548.08"/>
    <path class="st3" d="M774.25,184.44v74.44l-3.05-6.86-14.82-14.39-1.74-5.67-3.49-15.69,3.05-3.92,7.41-6.1,3.05-12.64,4.36-3.92,5.23-5.23ZM772.51,285.15l-4.8-1.74,1.74-10.9-4.8-4.8-10.03,1.74s-2.18,2.18-2.18,5.23v19.62l-7.41,3.05-10.9-.44-5.67-4.36-3.49,7.41-4.36,10.46-7.85.44-6.1-1.31,3.49,10.46-3.05,3.49-10.9-2.18-5.23-3.92-6.1,3.49-14.82-.87-6.54-8.28-4.78-2.61h0l1.88,1.03-1.96,17.22,7.05,5.98,6.07,10.93,12.41,2.14,2.56,2.99,12.79,1.32.84,1.27,12.28.76,14.7-11.29h9.07l2.54-.85,1.81-7.93-2.22-6.48,4.88-1.87,6.51-6.99,5.7,3.64h.97l8.73-2.27,3.03-7.45,5.86-1.26v-26.61l-1.74,1.74ZM754.9,704.65c-2.09,0-6.34-2.9-9.54-5.34l-6.95-6.62-7.38-8.7-.63-15.41-.2-.03-10.38.03-5.17,1.94-9.22-2.23-6.07.53-5.56,5.22-8.95-5.7-1.14-15.58,3.44-.38,1.62-4.65-3.04-2.81-2.97-3.59-4.16-6.69-4.02-4.92-.31-8.01,3.34-6.34,5.65-8.5,3.94-4,2.52-6.83,8.25.36,5.07-1.13,1.09-3.97-.98-4.18-5.25-5.43-2.95-6.49-3.98-4.31-.26-5.24-5.06-.62-4.97,2.79-5.92,4.29-9.6-.36-4.8-3.3-1.79.18-10.89,8.41-15.11-.32-5.84,2.49-7.15-.3-3.18,3.93-9.06.93-4.14,3.22-11.91-1.1-5.68-5.26-1.07-1.05.53,8.75,5.55,4.62h4.62v6.47l10.17,6.78.31,3.7-1.23,4.62-6.47,1.54-5.55,6.17-.62,4.62,4.62,3.39,4.93,4.32-.62,6.17-3.39,3.39h-8.32l-3.7,2.77.31,8.32-4.01,2.16v6.78l11.1.31,5.24,6.78,5.24,9.25,8.19,7.24,14.32,6.01,11.1,5.55,5.55,2.47,1.54,4.32-4.01,4.32v7.4l4.62,3.08-.92,10.48,10.79,8.63,12.33,3.39,13.87,5.24,13.26.92,7.4,3.7,7.4,4.32,4.32,1.23,12.64-1.85,2.77-7.71,12.02-7.71,9.56-4.32,4.62-5.55-2.16-8.94,1.54-8.63,4.62-4.01,1.85-5.86-.18.56c-2.68-.09-4.81-.16-5.38-.16ZM768.28,641.46l-9.88,9.42-12.26,10.92-9.49,7.89-2.2-.4.54,13.14,6.34,7.49,6.63,6.32c2.8,2.11,6.16,4.23,7.03,4.38h.03c.97,0,5.5.15,9.8.31l-3.45,2.39h0l4.01-2.77,3.7-9.86,5.17-12.47v-36.84l-5.97.08ZM774.25,314.13l-2.94.63-2.99,7.35-11.44,2.91h-2.4l-3.86-2.47-4.86,5.22-2.13.82,1.33,3.9-2.57,11.25-5.63,1.77h-8.04l-12.35,9.5,17.71,16.42-4.87,8.75,2.6,23.84-3.47,8.63,1.6,19.08,6.56,8.68.03,6.14,1.42,4.92,9.91.34,4.5,6.5,14.29,13.92,5.76-.82,1.85-5.09v-152.19ZM771.32,524.3l-2.13-6.77.02-6.48,5.04-4.23v-4.93l-2.44-.77-2.34-6.95-2.01,1.06-5.59-.99-13.1-5-3.36-.97-5.95,4.14-18.51-.03-4.05-5.28-7.79-.85-1.62-2.18c-.46.1-.95.2-1.27.28l-3.09,2.02-.61,7.06-3.8,1.5.17,6.85-1.06,7.11,6.19,9.46-5.05,4.77.31,33.27-4.6,7.98.24,4.84,3.56,4,2.93,6.45,5.39,5.39,1.48,6.3-1.99,7.29-7.95,1.77-5.85-.25-2.12,5.21-4.01,4.01-5.3,8.01-2.73,5.2.22,5.6,3.32,4.08,4.16,6.68,2.62,3.18,4.78,4.39-3.32,9.53-2.11.24.71,9.7,4.61,2.94,4.3-4.04,8.11-.7,8.66,2.09,5.06-1.76h10.78v-.11s5.16.94,5.16.94l.14.02,8-6.65,12.15-10.83,10.97-10.46,7.26-.1.34-1.43v-109.77l-2.93-1.86ZM4.27,529.08l10.52-6.4,6.3-10.56,2.53-24.43,9.76-4.86,7.75-10.64,29.49.04,4.69-4,9.12,3.04,11.22.29,8.18-4.09,7.99-2.97,13.87-2.16,5.57-.47-.44-6.57-7.75-8.4,2.02-5.55,6.82-1.7,8.75-6.42,10.64-12.16,5.7-8.91,5.94-2.6,18.37,1.26,8.78,1.25,19.04-.02.29-8.59,2.88-1.23,2.83-3.46,4.73-1.58v-2.56l.68-14.39,7.07-2.54,5.39-1.65,4.54-1.68.51-6.43,1.6-6.21,1.6-8.36,3.23-4.1-.53-10.28-3.88-2.69-.96-5.29,5.42-4.92,1.11,1.71-2.81-4.32s-5.86,1.23-6.17-.31c-.31-1.54-.92-6.17-.92-6.17l4.62-4.32.31-2.77-1.54-.62-2.77.62-4.93,1.85-9.56-.92-7.4-5.24-8.63-4.93s-8.94,4.01-10.17,4.93c-1.23.92-5.86,5.24-8.32,6.47-2.47,1.23-14.49,6.47-16.34,6.78-1.85.31-13.26,2.47-15.41,2.47s-8.32.92-9.56,1.54c-1.23.62-13.87,8.02-13.87,8.02l-12.02,3.39-4.01,4.62,1.23,6.47,7.09,6.47-.31,6.47s-3.7,5.24-5.86,6.78c-2.16,1.54-12.33,5.24-12.33,5.24l-14.49,7.71-14.8,10.79-8.02,9.56-12.33,15.11-10.48,3.08-14.49,8.94-9.86,10.17-10.17,4.62-4.62,11.1-6.8,4.27v85.77l3.03-5.12,1.33-7.3ZM10.41,667.25s4.32,1.85,6.17,3.7c1.85,1.85,1.54,6.17,1.54,6.17l7.09-.31v-6.17l-3.08-4.01,1.23-12.33,2.16-2.16,5.55-1.85,3.39-12.64.92-13.87,1.23-10.48,5.24-5.86-1.85-4.01,1.62,3.51-9.86-6.86-11.69-7.01.33-9.58-5.08-9.31-9.22-6.99-1.11-5.9.3-18.25-.71-1.57-2.02,3.41-2.66,4.1v115.17h5.87c4.01,0,4.62,3.08,4.62,3.08ZM243.75,333.99l4.13,2.87.71,13.76-3.55,4.53-1.45,7.53-1.57,5.99-.66,8.64-7.07,2.6-5.4,1.65-4.45,1.6-.55,11.6v5.36s-6.37,2.13-6.37,2.13l-2.72,3.32-1.44.62-.2,5.89h3.47l11.61.48,2.78,1.23,3.31,1.1c1.31-.2,3.36-.4,6.62-.7l.29-.43,3.93-6.2.04.52,2.69-3.81,7.42.04,4.21-2.23,2.29-13.51,15.37.67,6.6-3.81.63-7.54,8.33-3.65,8.5-17.87,12.04-.61-.02,2.53,9.94,1.19,9.25,6.37,13.83,6.76h.85l4.89-8.35,17.62-11.74,13.84,1.15-.92,8.89,9.11.54,12.25,11.68,10.2,16.02h2.46l9.38-8.13,6.65.95,8.39-5.12,11.85-2.26.03-.24,9.65-.48,2.8-2.53,3.79-1.38,2.74-10.19,2.45-3.06-4.44-5.29-3.49-7.41-2.56-4.69-4.57-7.76-.87-12.67-1.96-3.54-4.61-9.56-.65-9.59-3.3.38-12.02,5.24-12.33,7.09-9.86,4.93-14.8.31-22.2,1.54-7.09.62-5.24,3.08-36.07-.93-20.65-.62-6.78-2.16-12.95-.62-6.17,1.54-8.63,2.77-6.47,6.78-2.47,4.01-11.41-.92-2.73-3.03-3.22,1.56-3.29,3.05.27,1.49Z"/>
    <polygon class="st3" points="40.01 603.44 39.95 601.17 40.01 603.44 40.01 603.44"/>
    <polygon class="st9" points="644.63 418.7 643.32 420.1 643.34 420.11 644.63 418.7"/>
    <path class="st9" d="M602.92,501.83l18.31-7.41,9.59-2.18,11.77.87,5.34-.03-3.7.02,7.47-5.11-.83-13.91-4.81-10.9,2.93-7.83v-10.43l-.45-2.33-1.41-1.24-7.97-.31-5.02-6.96.87-8.21,3.34-6.99,2.01-1.47,1.08-1.18,1.52-1.67-2.04-7.08-5.65-4.1-7.77-2-9.05-6.14-13.03-.04-3.04-9.01-6.24-9.75-12.82.03-3.52-.09-8.51-1.89-7.89-9.21-7.16-2.48-3.42-23.01,5.65-2.89,5.47,2.97,4.67.74,3.41-1.38,4.8-6.29-2-11.98-3.43-8.02-4-1-2.15.05-.82-.03-5.31,4.46-7.98-1.15-4.63-7.42-6.03-4.17-1.53-9.16,1.78-5.6-8.43-.72-1.74-4.8-10.9,3.49h-10.03l-4.8-2.62-7.41,3.05-10.03.87-6.54-3.05-7.85.44s-3.49,3.05-5.23,4.8-9.16,4.8-9.16,4.8l-3.48,1.93.65,9.67,6.57,13.05.84,12.17,6.77,11.86,3.43,7.27,6.14,7.17-4.25,5.32-2.77,11.07-5.38,1.96-2.85,2.85-7.79.39-2.13,18.76-5.82,1.94-5.48,7.83-1.51,6.83-6.8,10.35-2.95,2.95-1.69,28.67,1.19,7.53,3.58,4.38,8.39,9.8-1,8.02,8.06,1.4,3.92-3.49,6.54-6.1,9.59-1.74,26.16,1.31,15.7.44,10.03,3.05,12.64,5.67,10.03,5.67,10.03,5.67,10.03,5.67,8.28,3.05h22.23l7.41-5.67Z"/>
    <polygon class="st9" points="549.68 305.38 553.55 311.56 557.9 312.19 563.02 307.89 565.26 307.98 567.82 307.91 574.29 309.53 578.74 320.06 581.06 334 574.53 342.54 569.07 344.75 562.3 343.57 558.4 341.44 557.21 342.05 559.85 359.79 565.73 361.84 573.46 370.85 580.45 372.41 583.32 372.44 598.31 372.4 606.09 384.66 608.29 391.18 619.68 391.2 629.44 397.84 637.3 399.88 644.4 405.03 647.44 415.6 644.63 418.69 644.63 418.69 644.63 418.7 643.34 420.11 643.32 420.1 642.51 420.95 653.29 426.34 659.21 433.12 666.58 438.32 669.34 441.82 672.28 442.11 675.23 438.73 682.88 438.23 689.93 443.37 698.54 454.33 700.44 459.28 707.35 463.26 710.93 470.07 710.39 481.29 711.28 482.47 719.04 483.32 722.93 488.38 738.19 488.41 744.68 483.89 750.02 485.45 763.15 490.44 766.79 491.05 768.66 490.06 768.75 486.32 763.84 482.92 763.93 475.23 749.3 460.91 745.71 455.77 734.9 455.4 732.51 446.86 732.48 441.78 726.02 433.24 724.24 412.04 727.69 403.46 725.07 379.35 729.02 372.23 712.36 356.79 698.14 355.91 697.24 354.55 684.74 353.26 682.07 350.15 669.2 347.93 662.37 335.65 654.41 329.09 656.83 307.8 651.75 304.33 640.41 303.46 631.26 308.69 636.92 318.72 639.1 321.77 632.13 327 626.02 318.72 614.25 310 608.59 307.38 604.66 307.38 605.1 303.02 613.38 296.05 616 286.02 621.67 284.28 625.59 284.28 625.59 278.61 617.74 269.89 612.07 265.09 605.1 263.79 594.64 265.96 590.28 269.45 581.99 269.45 575.02 277.74 557.58 283.84 558.01 289.94 551.04 292.12 544.67 289.78 543.07 294.82 544.16 301.34 549.68 305.38"/>
    <polygon class="st9" points="644.63 418.69 644.63 418.7 644.63 418.69 644.63 418.69"/>
  </g>
  <g>
    <rect class="st8" x="39.45" y="486.82" width="164.96" height="53.9" rx="26.95" ry="26.95"/>
    <text class="st0" transform="translate(108.05 528.13)"><tspan x="0" y="0">廣島</tspan></text>
    <g>
      <g>
        <g>
          <polygon class="st2" points="89.15 526.24 81.36 512.17 86.3 507.23 91.39 524 89.15 526.24"/>
          <path class="st2" d="M89.01,527.18l-8.36-15.11,5.92-5.92,5.47,18.01-3.03,3.02ZM82.07,512.27l7.21,13.03,1.47-1.47-4.71-15.53-3.96,3.96Z"/>
        </g>
        <g>
          <polygon class="st2" points="66.88 503.97 80.95 511.76 85.89 506.82 69.12 501.73 66.88 503.97"/>
          <path class="st2" d="M81.05,512.47l-15.11-8.36,3.02-3.03,18.01,5.47-5.92,5.92ZM67.82,503.84l13.03,7.21,3.96-3.96-15.53-4.71-1.47,1.47Z"/>
        </g>
      </g>
      <g>
        <path class="st2" d="M75.9,520.07l16.04-16.04c.78-.79,1.46-2.73.67-3.52-.79-.79-2.73-.11-3.52.67l-16.04,16.04-5-1.52-1.94,1.94,5.78,3.2.37.37,3.2,5.78,1.94-1.94-1.52-5Z"/>
        <path class="st2" d="M75.34,527.94l-3.53-6.38-.26-.26-6.38-3.53,2.72-2.72,5,1.52,15.8-15.79c.68-.68,1.93-1.19,2.91-1.19.59,0,1.08.18,1.42.52,1.13,1.13.21,3.44-.67,4.33l-15.79,15.79,1.52,5-2.72,2.72ZM67.06,517.51l5.19,2.87.49.49,2.87,5.19,1.16-1.16-1.52-5,16.28-16.28c.65-.65,1.14-2.25.67-2.71-.15-.15-.42-.18-.61-.18-.74,0-1.68.44-2.1.86l-16.28,16.28-5-1.52-1.16,1.16Z"/>
      </g>
    </g>
  </g>
  <g>
    <rect class="st8" x="218.41" y="443" width="164.96" height="53.9" rx="26.95" ry="26.95"/>
    <text class="st0" transform="translate(287.01 484.31)"><tspan x="0" y="0">岡山</tspan></text>
    <g>
      <g>
        <g>
          <polygon class="st2" points="268.11 482.43 260.32 468.35 265.26 463.41 270.35 480.18 268.11 482.43"/>
          <path class="st2" d="M267.97,483.37l-8.36-15.11,5.92-5.92,5.47,18.01-3.03,3.02ZM261.03,468.45l7.21,13.03,1.47-1.47-4.71-15.53-3.96,3.96Z"/>
        </g>
        <g>
          <polygon class="st2" points="245.84 460.16 259.91 467.94 264.85 463 248.08 457.91 245.84 460.16"/>
          <path class="st2" d="M260.01,468.65l-15.11-8.36,3.02-3.03,18.01,5.47-5.92,5.92ZM246.78,460.02l13.03,7.21,3.96-3.96-15.53-4.71-1.47,1.47Z"/>
        </g>
      </g>
      <g>
        <path class="st2" d="M254.86,476.25l16.04-16.04c.78-.79,1.46-2.73.67-3.52-.79-.79-2.73-.11-3.52.67l-16.04,16.04-5-1.52-1.94,1.94,5.78,3.2.37.37,3.2,5.78,1.94-1.94-1.52-5Z"/>
        <path class="st2" d="M254.31,484.12l-3.53-6.38-.26-.26-6.38-3.53,2.72-2.72,5,1.52,15.8-15.79c.68-.68,1.93-1.19,2.91-1.19.59,0,1.08.18,1.42.52,1.13,1.13.21,3.44-.67,4.33l-15.79,15.79,1.52,5-2.72,2.72ZM246.02,473.69l5.19,2.87.49.49,2.87,5.19,1.16-1.16-1.52-5,16.28-16.28c.65-.65,1.14-2.25.67-2.71-.15-.15-.42-.18-.61-.18-.74,0-1.68.44-2.1.86l-16.28,16.28-5-1.52-1.16,1.16Z"/>
      </g>
    </g>
  </g>
  <g>
    <rect class="st8" x="412.66" y="431.35" width="164.96" height="53.9" rx="26.95" ry="26.95"/>
    <text class="st0" transform="translate(481.25 472.66)"><tspan x="0" y="0">神戶</tspan></text>
    <g>
      <g>
        <g>
          <polygon class="st2" points="462.35 470.77 454.57 456.7 459.51 451.76 464.6 468.53 462.35 470.77"/>
          <path class="st2" d="M462.22,471.72l-8.36-15.11,5.92-5.92,5.47,18.01-3.03,3.02ZM455.28,456.8l7.21,13.03,1.47-1.47-4.71-15.53-3.96,3.96Z"/>
        </g>
        <g>
          <polygon class="st2" points="440.08 448.51 454.16 456.29 459.1 451.35 442.33 446.26 440.08 448.51"/>
          <path class="st2" d="M454.26,457l-15.11-8.36,3.02-3.03,18.01,5.47-5.92,5.92ZM441.02,448.37l13.03,7.21,3.96-3.96-15.53-4.71-1.47,1.47Z"/>
        </g>
      </g>
      <g>
        <path class="st2" d="M449.1,464.6l16.04-16.04c.78-.79,1.46-2.73.67-3.52-.79-.79-2.73-.11-3.52.67l-16.04,16.04-5-1.52-1.94,1.94,5.78,3.2.37.37,3.2,5.78,1.94-1.94-1.52-5Z"/>
        <path class="st2" d="M448.55,472.47l-3.53-6.38-.26-.26-6.38-3.53,2.72-2.72,5,1.52,15.8-15.79c.68-.68,1.93-1.19,2.91-1.19.59,0,1.08.18,1.42.52,1.13,1.13.21,3.44-.67,4.33l-15.79,15.79,1.52,5-2.72,2.72ZM440.27,462.04l5.19,2.87.49.49,2.87,5.19,1.16-1.16-1.52-5,16.28-16.28c.65-.65,1.14-2.25.67-2.71-.15-.15-.42-.18-.61-.18-.74,0-1.68.44-2.1.86l-16.28,16.28-5-1.52-1.16,1.16Z"/>
      </g>
    </g>
  </g>
  <g>
    <rect class="st10" x="554.66" y="530.35" width="164.96" height="53.9" rx="26.95" ry="26.95"/>
    <text class="st0" transform="translate(623.25 571.66)"><tspan x="0" y="0">大阪</tspan></text>
    <g>
      <g>
        <g>
          <polygon class="st2" points="604.35 569.77 596.57 555.7 601.51 550.76 606.6 567.53 604.35 569.77"/>
          <path class="st2" d="M604.22,570.72l-8.36-15.11,5.92-5.92,5.47,18.01-3.03,3.02ZM597.28,555.8l7.21,13.03,1.47-1.47-4.71-15.53-3.96,3.96Z"/>
        </g>
        <g>
          <polygon class="st2" points="582.08 547.51 596.16 555.29 601.1 550.35 584.33 545.26 582.08 547.51"/>
          <path class="st2" d="M596.26,556l-15.11-8.36,3.02-3.03,18.01,5.47-5.92,5.92ZM583.02,547.37l13.03,7.21,3.96-3.96-15.53-4.71-1.47,1.47Z"/>
        </g>
      </g>
      <g>
        <path class="st2" d="M591.1,563.6l16.04-16.04c.78-.79,1.46-2.73.67-3.52-.79-.79-2.73-.11-3.52.67l-16.04,16.04-5-1.52-1.94,1.94,5.78,3.2.37.37,3.2,5.78,1.94-1.94-1.52-5Z"/>
        <path class="st2" d="M590.55,571.47l-3.53-6.38-.26-.26-6.38-3.53,2.72-2.72,5,1.52,15.8-15.79c.68-.68,1.93-1.19,2.91-1.19.59,0,1.08.18,1.42.52,1.13,1.13.21,3.44-.67,4.33l-15.79,15.79,1.52,5-2.72,2.72ZM582.27,561.04l5.19,2.87.49.49,2.87,5.19,1.16-1.16-1.52-5,16.28-16.28c.65-.65,1.14-2.25.67-2.71-.15-.15-.42-.18-.61-.18-.74,0-1.68.44-2.1.86l-16.28,16.28-5-1.52-1.16,1.16Z"/>
      </g>
    </g>
  </g>
  <g>
    <rect class="st8" x="300.78" y="544.04" width="164.96" height="53.9" rx="26.95" ry="26.95"/>
    <text class="st0" transform="translate(369.37 585.36)"><tspan x="0" y="0">高松</tspan></text>
    <g>
      <g>
        <g>
          <polygon class="st2" points="350.47 583.47 342.69 569.4 347.63 564.46 352.72 581.23 350.47 583.47"/>
          <path class="st2" d="M350.34,584.41l-8.36-15.11,5.92-5.92,5.47,18.01-3.03,3.02ZM343.4,569.5l7.21,13.03,1.47-1.47-4.71-15.53-3.96,3.96Z"/>
        </g>
        <g>
          <polygon class="st2" points="328.2 561.2 342.28 568.99 347.22 564.05 330.45 558.96 328.2 561.2"/>
          <path class="st2" d="M342.38,569.7l-15.11-8.36,3.02-3.03,18.01,5.47-5.92,5.92ZM329.14,561.07l13.03,7.21,3.96-3.96-15.53-4.71-1.47,1.47Z"/>
        </g>
      </g>
      <g>
        <path class="st2" d="M337.22,577.29l16.04-16.04c.78-.79,1.46-2.73.67-3.52-.79-.79-2.73-.11-3.52.67l-16.04,16.04-5-1.52-1.94,1.94,5.78,3.2.37.37,3.2,5.78,1.94-1.94-1.52-5Z"/>
        <path class="st2" d="M336.67,585.17l-3.53-6.38-.26-.26-6.38-3.53,2.72-2.72,5,1.52,15.8-15.79c.68-.68,1.93-1.19,2.91-1.19.59,0,1.08.18,1.42.52,1.13,1.13.21,3.44-.67,4.33l-15.79,15.79,1.52,5-2.72,2.72ZM328.39,574.74l5.19,2.87.49.49,2.87,5.19,1.16-1.16-1.52-5,16.28-16.28c.65-.65,1.14-2.25.67-2.71-.15-.15-.42-.18-.61-.18-.74,0-1.68.44-2.1.86l-16.28,16.28-5-1.52-1.16,1.16Z"/>
      </g>
    </g>
  </g>
  <g>
    <rect class="st8" x="37" y="605.29" width="164.96" height="53.9" rx="26.95" ry="26.95"/>
    <text class="st0" transform="translate(105.6 646.61)"><tspan x="0" y="0">松山</tspan></text>
    <g>
      <g>
        <g>
          <polygon class="st2" points="86.7 644.72 78.91 630.65 83.85 625.71 88.94 642.47 86.7 644.72"/>
          <path class="st2" d="M86.56,645.66l-8.36-15.11,5.92-5.92,5.47,18.01-3.03,3.02ZM79.62,630.75l7.21,13.03,1.47-1.47-4.71-15.53-3.96,3.96Z"/>
        </g>
        <g>
          <polygon class="st2" points="64.43 622.45 78.5 630.24 83.44 625.29 66.67 620.2 64.43 622.45"/>
          <path class="st2" d="M78.6,630.94l-15.11-8.36,3.02-3.03,18.01,5.47-5.92,5.92ZM65.37,622.32l13.03,7.21,3.96-3.96-15.53-4.71-1.47,1.47Z"/>
        </g>
      </g>
      <g>
        <path class="st2" d="M73.45,638.54l16.04-16.04c.78-.79,1.46-2.73.67-3.52-.79-.79-2.73-.11-3.52.67l-16.04,16.04-5-1.52-1.94,1.94,5.78,3.2.37.37,3.2,5.78,1.94-1.94-1.52-5Z"/>
        <path class="st2" d="M72.89,646.42l-3.53-6.38-.26-.26-6.38-3.53,2.72-2.72,5,1.52,15.8-15.79c.68-.68,1.93-1.19,2.91-1.19.59,0,1.08.18,1.42.52,1.13,1.13.21,3.44-.67,4.33l-15.79,15.79,1.52,5-2.72,2.72ZM64.61,635.99l5.19,2.87.49.49,2.87,5.19,1.16-1.16-1.52-5,16.28-16.28c.65-.65,1.14-2.25.67-2.71-.15-.15-.42-.18-.61-.18-.74,0-1.68.44-2.1.86l-16.28,16.28-5-1.52-1.16,1.16Z"/>
      </g>
    </g>
  </g>
  <g>
    <rect class="st8" x="169.3" y="704.92" width="164.96" height="53.9" rx="26.95" ry="26.95"/>
    <text class="st0" transform="translate(237.89 746.24)"><tspan x="0" y="0">高知</tspan></text>
    <g>
      <g>
        <g>
          <polygon class="st2" points="218.99 744.35 211.21 730.28 216.15 725.34 221.24 742.1 218.99 744.35"/>
          <path class="st2" d="M218.86,745.29l-8.36-15.11,5.92-5.92,5.47,18.01-3.03,3.02ZM211.92,730.38l7.21,13.03,1.47-1.47-4.71-15.53-3.96,3.96Z"/>
        </g>
        <g>
          <polygon class="st2" points="196.72 722.08 210.8 729.87 215.74 724.92 198.97 719.83 196.72 722.08"/>
          <path class="st2" d="M210.9,730.57l-15.11-8.36,3.02-3.03,18.01,5.47-5.92,5.92ZM197.67,721.95l13.03,7.21,3.96-3.96-15.53-4.71-1.47,1.47Z"/>
        </g>
      </g>
      <g>
        <path class="st2" d="M205.74,738.17l16.04-16.04c.78-.79,1.46-2.73.67-3.52-.79-.79-2.73-.11-3.52.67l-16.04,16.04-5-1.52-1.94,1.94,5.78,3.2.37.37,3.2,5.78,1.94-1.94-1.52-5Z"/>
        <path class="st2" d="M205.19,746.05l-3.53-6.38-.26-.26-6.38-3.53,2.72-2.72,5,1.52,15.8-15.79c.68-.68,1.93-1.19,2.91-1.19.59,0,1.08.18,1.42.52,1.13,1.13.21,3.44-.67,4.33l-15.79,15.79,1.52,5-2.72,2.72ZM196.91,735.62l5.19,2.87.49.49,2.87,5.19,1.16-1.16-1.52-5,16.28-16.28c.65-.65,1.14-2.25.67-2.71-.15-.15-.42-.18-.61-.18-.74,0-1.68.44-2.1.86l-16.28,16.28-5-1.52-1.16,1.16Z"/>
      </g>
    </g>
  </g>
  <g>
    <rect class="st8" x="606.66" y="227.35" width="164.96" height="53.9" rx="26.95" ry="26.95"/>
    <text class="st0" transform="translate(675.25 268.66)"><tspan x="0" y="0">小松</tspan></text>
    <g>
      <g>
        <g>
          <polygon class="st2" points="656.35 266.77 648.57 252.7 653.51 247.76 658.6 264.53 656.35 266.77"/>
          <path class="st2" d="M656.22,267.72l-8.36-15.11,5.92-5.92,5.47,18.01-3.03,3.02ZM649.28,252.8l7.21,13.03,1.47-1.47-4.71-15.53-3.96,3.96Z"/>
        </g>
        <g>
          <polygon class="st2" points="634.08 244.51 648.16 252.29 653.1 247.35 636.33 242.26 634.08 244.51"/>
          <path class="st2" d="M648.26,253l-15.11-8.36,3.02-3.03,18.01,5.47-5.92,5.92ZM635.02,244.37l13.03,7.21,3.96-3.96-15.53-4.71-1.47,1.47Z"/>
        </g>
      </g>
      <g>
        <path class="st2" d="M643.1,260.6l16.04-16.04c.78-.79,1.46-2.73.67-3.52-.79-.79-2.73-.11-3.52.67l-16.04,16.04-5-1.52-1.94,1.94,5.78,3.2.37.37,3.2,5.78,1.94-1.94-1.52-5Z"/>
        <path class="st2" d="M642.55,268.47l-3.53-6.38-.26-.26-6.38-3.53,2.72-2.72,5,1.52,15.8-15.79c.68-.68,1.93-1.19,2.91-1.19.59,0,1.08.18,1.42.52,1.13,1.13.21,3.44-.67,4.33l-15.79,15.79,1.52,5-2.72,2.72ZM634.27,258.04l5.19,2.87.49.49,2.87,5.19,1.16-1.16-1.52-5,16.28-16.28c.65-.65,1.14-2.25.67-2.71-.15-.15-.42-.18-.61-.18-.74,0-1.68.44-2.1.86l-16.28,16.28-5-1.52-1.16,1.16Z"/>
      </g>
    </g>
  </g>
  <text>
    <textPath xlink:href="#path"><tspan class="st5"><tspan x="0" y="0">《大阪世界萬國博覽會 EXPO 2025》</tspan></tspan>
    </textPath></text>
  <text>
    <textPath xlink:href="#path1"><tspan class="st4"><tspan x="0" y="0">科技、文化與創新的巔峰盛會</tspan></tspan>
    </textPath></text>
  <g>
    <text class="st6" transform="translate(57.39 108.97)"><tspan x="0" y="0">西日本地區地圖</tspan></text>
    <g>
      <g>
        <g>
          <polygon class="st11" points="87.6 173.8 79.69 159.49 84.71 154.47 89.88 171.51 87.6 173.8"/>
          <path class="st11" d="M87.46,174.75l-8.5-15.36,6.02-6.02,5.56,18.31-3.08,3.07ZM80.41,159.59l7.33,13.25,1.49-1.49-4.79-15.78-4.03,4.03Z"/>
        </g>
        <g>
          <polygon class="st11" points="64.96 151.16 79.27 159.07 84.29 154.05 67.25 148.87 64.96 151.16"/>
          <path class="st11" d="M79.37,159.79l-15.36-8.5,3.07-3.08,18.31,5.56-6.02,6.02ZM65.92,151.02l13.25,7.33,4.03-4.03-15.79-4.79-1.49,1.49Z"/>
        </g>
      </g>
      <g>
        <path class="st11" d="M74.13,167.52l16.3-16.3c.8-.8,1.48-2.78.69-3.58-.8-.8-2.78-.11-3.58.68l-16.3,16.3-5.08-1.54-1.97,1.97,5.88,3.25.38.38,3.25,5.88,1.97-1.97-1.54-5.08Z"/>
        <path class="st11" d="M73.57,175.52l-3.59-6.48-.26-.26-6.48-3.59,2.76-2.76,5.08,1.54,16.06-16.06c.69-.69,1.96-1.21,2.95-1.21.6,0,1.1.18,1.44.53,1.15,1.15.21,3.5-.68,4.4l-16.06,16.06,1.54,5.08-2.76,2.76ZM65.15,164.92l5.28,2.92.5.5,2.92,5.28,1.18-1.18-1.54-5.08,16.55-16.55c.66-.66,1.15-2.28.69-2.75-.15-.15-.42-.19-.62-.19-.76,0-1.71.45-2.13.87l-16.55,16.55-5.08-1.54-1.18,1.18Z"/>
      </g>
    </g>
    <text class="st1" transform="translate(105.81 172.72)"><tspan x="0" y="0">台灣直飛航點城市名稱</tspan></text>
  </g>
</svg>